<?xml version="1.0" encoding="UTF-8" standalone="no"?>
<svg
   xmlns:dc="http://purl.org/dc/elements/1.1/"
   xmlns:cc="http://creativecommons.org/ns#"
   xmlns:rdf="http://www.w3.org/1999/02/22-rdf-syntax-ns#"
   xmlns:svg="http://www.w3.org/2000/svg"
   xmlns="http://www.w3.org/2000/svg"
   xmlns:sodipodi="http://sodipodi.sourceforge.net/DTD/sodipodi-0.dtd"
   xmlns:inkscape="http://www.inkscape.org/namespaces/inkscape"
   width="810"
   height="900"
   viewBox="0 0 810 900"
   fill="none"
   version="1.1"
   id="svg15"
   sodipodi:docname="hero-background.svg"
   inkscape:version="0.92.4 (5da689c313, 2019-01-14)">
  <metadata
     id="metadata19">
    <rdf:RDF>
      <cc:Work
         rdf:about="">
        <dc:format>image/svg+xml</dc:format>
        <dc:type
           rdf:resource="http://purl.org/dc/dcmitype/StillImage" />
        <dc:title></dc:title>
      </cc:Work>
    </rdf:RDF>
  </metadata>
  <sodipodi:namedview
     pagecolor="#ffffff"
     bordercolor="#666666"
     borderopacity="1"
     objecttolerance="10"
     gridtolerance="10"
     guidetolerance="10"
     inkscape:pageopacity="0"
     inkscape:pageshadow="2"
     inkscape:window-width="1920"
     inkscape:window-height="1019"
     id="namedview17"
     showgrid="true"
     inkscape:zoom="0.37083822"
     inkscape:cx="1118.1919"
     inkscape:cy="269.87067"
     inkscape:window-x="0"
     inkscape:window-y="24"
     inkscape:window-maximized="1"
     inkscape:current-layer="g8" />
  <g
     clip-path="url(#clip0)"
     id="g8">
    <path
       d="M262.29 290.69C54.6367 256.855 0 164.213 0 -1H810V811.998C608.238 811.998 551.154 692.522 551.154 569.312C551.154 314.958 446.829 320.758 262.29 290.69Z"
       id="path2"
       fill="#E9EEF9" />
    <path
       d="M346.058 220.349C70.4838 220.349 84.1104 72.9252 84.1104 -1H810V518C810 518 724.186 514.487 681.774 406C639.575 298.057 591.061 220.349 346.058 220.349Z"
       id="path4"
       fill="#DBE0F6" />
    <path
       d="M344.71 185.878C76.7012 185.878 94.2347 73.3789 94.2347 -1H810V395.997C810 395.997 735.546 397.909 735.546 297.497C735.546 63.2039 582.988 185.878 344.71 185.878Z"
       id="path6"
       fill="#A7B6E1" />
  </g>
  <defs
     id="defs13">
    <clipPath
       id="clip0">
      <rect
         width="810"
         height="900"
         fill="white"
         id="rect10" />
    </clipPath>
  </defs>
</svg>
