<svg width="1588" height="1073" viewBox="0 0 1588 1073" fill="none" xmlns="http://www.w3.org/2000/svg">
<path d="M1384.42 749.843C1380.56 744.34 1362.98 739.922 1345.11 739.922H243.171C225.299 739.922 207.721 744.34 203.862 749.843L2.33809 1025.52C-3.64516 1034.06 9.01886 1073 30.6887 1073H1557.59C1579.26 1073 1591.93 1034.06 1585.94 1025.52L1384.42 749.843Z" fill="#F1F2F2"/>
<path d="M1384.42 749.843C1380.56 744.34 1362.98 739.922 1345.11 739.922H243.171C225.299 739.922 207.721 744.34 203.862 749.843L2.33809 1025.52C-3.64516 1034.06 9.01886 1041.08 30.6887 1041.08H1557.59C1579.26 1041.08 1591.93 1034.06 1585.94 1025.52L1384.42 749.843Z" fill="#D1D3D4"/>
<path d="M884.076 1056.07H704.207C693.604 1056.07 685.017 1047.49 685.017 1036.9H903.266C903.266 1047.49 894.678 1056.07 884.076 1056.07Z" fill="#D1D3D4"/>
<path d="M243.171 739.922C236.599 739.922 230.073 740.527 224.26 741.55C229.066 744.495 238.971 746.51 250.86 746.51H1337.42C1349.31 746.51 1359.22 744.511 1364.02 741.55C1358.21 740.527 1351.68 739.922 1345.1 739.922H243.171Z" fill="#A9ACAD"/>
<path d="M1197.11 739.923H391.373L387.777 747.177C386.862 749.021 391.001 750.525 397.046 750.525H1191.17C1197.2 750.525 1201.39 749.021 1200.52 747.177L1197.11 739.923Z" fill="#3F3C3A"/>
<path d="M977.25 1018.59L954.991 961.938C954.201 959.923 952.263 958.59 950.093 958.59H637.972C635.787 958.59 633.834 959.939 633.059 961.954L611.032 1018.61C610.226 1020.67 611.745 1022.92 613.977 1022.92H974.305C976.537 1022.92 978.072 1020.67 977.25 1018.59Z" fill="#EDECEB"/>
<path d="M955.751 963.876L954.991 961.938C954.201 959.923 952.263 958.59 950.093 958.59H637.972C635.787 958.59 633.834 959.939 633.059 961.954L632.299 963.876H955.751Z" fill="#CECECE"/>
<path d="M313.466 789.028H259.741C255.262 789.028 252.471 784.425 254.688 780.736L254.936 780.348C255.975 778.628 257.897 777.573 259.974 777.573H313.668C318.008 777.573 320.814 781.914 318.861 785.603L318.659 785.99C317.667 787.85 315.667 789.028 313.466 789.028Z" fill="#242424"/>
<path d="M298.586 813.178H245.155C240.675 813.178 237.885 808.575 240.102 804.886L245.822 795.43C246.86 793.71 248.782 792.656 250.859 792.656H303.623C307.964 792.656 310.769 796.996 308.816 800.685L303.778 810.14C302.786 812 300.787 813.178 298.586 813.178Z" fill="#242424"/>
<path d="M325.154 838.305H230.089C225.609 838.305 222.819 833.701 225.035 830.012L231.422 819.441C232.46 817.72 234.398 816.666 236.475 816.666H330.331C334.594 816.666 337.399 820.867 335.601 824.541L330.44 835.112C329.479 837.065 327.417 838.305 325.154 838.305Z" fill="#242424"/>
<path d="M332.563 865.199H213.844C209.364 865.199 206.574 860.595 208.791 856.906L215.921 845.11C216.959 843.389 218.881 842.335 220.974 842.335H338.097C342.313 842.335 345.134 846.458 343.414 850.117L337.895 861.912C336.95 863.912 334.873 865.199 332.563 865.199Z" fill="#242424"/>
<path d="M277.009 893.239H196.902C192.422 893.239 189.632 888.636 191.848 884.946L199.785 871.833C200.808 870.112 202.745 869.058 204.822 869.058H283.705C287.999 869.058 290.82 873.337 288.944 877.01L282.248 890.124C281.272 892.03 279.241 893.239 277.009 893.239Z" fill="#242424"/>
<path d="M237.746 927.604H176.147C171.667 927.604 168.861 923.001 171.093 919.311L182.672 900.137C183.711 898.432 185.633 897.362 187.726 897.362H247.93C252.27 897.362 255.091 901.718 253.123 905.407L242.939 924.566C241.947 926.426 239.932 927.604 237.746 927.604Z" fill="#242424"/>
<path d="M324.89 927.604H262.872C258.563 927.604 255.742 923.295 257.649 919.621L267.616 900.447C268.608 898.556 270.623 897.362 272.839 897.362H333.478C337.647 897.362 340.453 901.424 338.825 905.066L330.238 924.241C329.324 926.287 327.215 927.604 324.89 927.604Z" fill="#242424"/>
<path d="M412.469 927.604H350.095C345.941 927.604 343.135 923.605 344.716 919.947L353.071 900.788C353.97 898.711 356.078 897.362 358.434 897.362H419.429C423.428 897.362 426.234 901.114 424.932 904.71L417.972 923.884C417.166 926.116 414.949 927.604 412.469 927.604Z" fill="#242424"/>
<path d="M1064.29 927.604H979.637C976.801 927.604 974.367 925.651 973.902 922.97L970.57 903.811C969.981 900.432 972.724 897.362 976.32 897.362H1059.17C1061.84 897.362 1064.16 899.083 1064.81 901.548L1069.93 920.706C1070.87 924.21 1068.08 927.604 1064.29 927.604Z" fill="#242424"/>
<path d="M1151.42 927.604H1088.65C1086 927.604 1083.69 925.915 1083.03 923.497L1077.68 904.322C1076.69 900.819 1079.48 897.362 1083.29 897.362H1144.67C1147.18 897.362 1149.4 898.897 1150.21 901.145L1156.93 920.319C1158.2 923.9 1155.4 927.604 1151.42 927.604Z" fill="#242424"/>
<path d="M1325.5 927.604H1263.39C1261.05 927.604 1258.94 926.287 1258.03 924.241L1249.46 905.066C1247.81 901.424 1250.64 897.362 1254.8 897.362H1315.54C1317.74 897.362 1319.77 898.556 1320.74 900.447L1330.71 919.621C1332.63 923.295 1329.81 927.604 1325.5 927.604Z" fill="#242424"/>
<path d="M1238.53 927.697H1176.15C1173.67 927.697 1171.46 926.209 1170.65 923.977L1169.07 919.606C1167.75 916.01 1170.56 912.259 1174.56 912.259H1236.62C1238.98 912.259 1241.1 913.607 1242 915.684L1243.91 920.056C1245.5 923.698 1242.68 927.697 1238.53 927.697Z" fill="#242424"/>
<path d="M1412.35 927.697H1350.74C1348.55 927.697 1346.54 926.535 1345.54 924.659L1343.22 920.304C1341.27 916.614 1344.07 912.259 1348.41 912.259H1409.7C1411.79 912.259 1413.72 913.328 1414.76 915.033L1417.39 919.404C1419.62 923.094 1416.82 927.697 1412.35 927.697Z" fill="#242424"/>
<path d="M521.392 927.604H436.805C432.822 927.604 430.016 923.9 431.287 920.319L438.014 901.145C438.82 898.897 441.037 897.362 443.548 897.362H526.337C530.119 897.362 532.894 900.726 531.995 904.214L527.05 923.388C526.414 925.868 524.074 927.604 521.392 927.604Z" fill="#242424"/>
<path d="M955.751 927.604H545.403C541.667 927.604 538.892 924.287 539.745 920.815L544.473 901.641C545.077 899.13 547.433 897.362 550.13 897.362H952.651C955.518 897.362 957.967 899.362 958.401 902.059L961.517 921.234C962.06 924.582 959.332 927.604 955.751 927.604Z" fill="#242424"/>
<path d="M376.213 813.178H322.364C318.055 813.178 315.234 808.869 317.156 805.18L322.069 795.74C323.046 793.849 325.077 792.656 327.278 792.656H380.445C384.615 792.656 387.436 796.701 385.808 800.359L381.576 809.799C380.662 811.845 378.554 813.178 376.213 813.178Z" fill="#242424"/>
<path d="M453.903 813.178H399.697C395.543 813.178 392.722 809.164 394.318 805.521L398.426 796.066C399.34 794.004 401.464 792.656 403.805 792.656H457.344C461.343 792.656 464.149 796.407 462.847 799.987L459.405 809.443C458.599 811.675 456.383 813.178 453.903 813.178Z" fill="#242424"/>
<path d="M530.476 813.178H475.975C471.992 813.178 469.186 809.458 470.457 805.878L473.79 796.422C474.58 794.175 476.797 792.656 479.308 792.656H533.126C536.955 792.656 539.73 796.097 538.753 799.615L536.102 809.055C535.42 811.489 533.111 813.178 530.476 813.178Z" fill="#242424"/>
<path d="M608.087 813.178H553.339C549.541 813.178 546.751 809.768 547.697 806.265L550.239 796.81C550.89 794.361 553.215 792.656 555.866 792.656H609.932C613.574 792.656 616.318 795.802 615.652 799.197L613.807 808.652C613.295 811.272 610.877 813.178 608.087 813.178Z" fill="#242424"/>
<path d="M685.358 813.178H630.439C626.827 813.178 624.084 810.063 624.719 806.684L626.455 797.228C626.951 794.578 629.369 792.656 632.191 792.656H686.412C689.868 792.656 692.565 795.508 692.209 798.778L691.139 808.218C690.829 811.039 688.334 813.178 685.358 813.178Z" fill="#242424"/>
<path d="M762.814 813.178H707.818C704.377 813.178 701.695 810.357 702.021 807.118L702.966 797.662C703.245 794.826 705.772 792.656 708.764 792.656H763.078C766.349 792.656 768.984 795.213 768.906 798.329L768.643 807.784C768.55 810.791 765.977 813.178 762.814 813.178Z" fill="#242424"/>
<path d="M840.333 813.178H785.306C782.051 813.178 779.431 810.636 779.493 807.552L779.633 798.096C779.695 795.074 782.283 792.656 785.461 792.656H839.791C842.891 792.656 845.433 794.95 845.603 797.895L846.146 807.335C846.316 810.512 843.666 813.178 840.333 813.178Z" fill="#242424"/>
<path d="M916.72 813.178H861.755C858.686 813.178 856.143 810.9 855.957 807.986L855.322 798.546C855.105 795.353 857.771 792.656 861.119 792.656H915.402C918.332 792.656 920.797 794.702 921.169 797.461L922.502 806.901C922.967 810.218 920.254 813.178 916.72 813.178Z" fill="#242424"/>
<path d="M994.146 813.178H939.305C936.422 813.178 933.957 811.148 933.538 808.42L932.112 798.98C931.616 795.632 934.329 792.656 937.879 792.656H992.038C994.782 792.656 997.153 794.485 997.727 797.027L999.835 806.482C1000.61 809.923 997.851 813.178 994.146 813.178Z" fill="#242424"/>
<path d="M1072.76 813.178H1018.13C1015.4 813.178 1013.04 811.38 1012.44 808.854L1010.2 799.398C1009.38 795.942 1012.16 792.656 1015.88 792.656H1069.84C1072.41 792.656 1074.69 794.268 1075.42 796.624L1078.35 806.079C1079.45 809.629 1076.64 813.178 1072.76 813.178Z" fill="#242424"/>
<path d="M1149.06 813.178H1094.68C1092.13 813.178 1089.86 811.582 1089.12 809.241L1086.08 799.801C1084.95 796.236 1087.74 792.656 1091.66 792.656H1145.34C1147.77 792.656 1149.94 794.082 1150.8 796.252L1154.5 805.707C1155.93 809.319 1153.12 813.178 1149.06 813.178Z" fill="#242424"/>
<path d="M404.936 838.305H349.072C344.825 838.305 342.019 834.135 343.771 830.477L348.824 819.906C349.77 817.937 351.831 816.666 354.11 816.666H409.214C413.291 816.666 416.112 820.572 414.64 824.184L410.362 834.755C409.493 836.895 407.339 838.305 404.936 838.305Z" fill="#242424"/>
<path d="M484.718 838.305H428.528C424.467 838.305 421.646 834.445 423.072 830.834L427.226 820.262C428.078 818.092 430.248 816.666 432.682 816.666H488.112C492.018 816.666 494.824 820.262 493.677 823.812L490.282 834.383C489.538 836.709 487.275 838.305 484.718 838.305Z" fill="#242424"/>
<path d="M563.368 838.305H506.899C503.024 838.305 500.218 834.755 501.319 831.206L504.605 820.634C505.333 818.278 507.612 816.666 510.185 816.666H565.879C569.615 816.666 572.374 819.968 571.552 823.425L569.041 833.996C568.437 836.523 566.08 838.305 563.368 838.305Z" fill="#242424"/>
<path d="M643.072 838.305H586.402C582.697 838.305 579.938 835.05 580.713 831.609L583.1 821.037C583.69 818.495 586.061 816.666 588.805 816.666H644.684C648.234 816.666 650.962 819.658 650.451 823.006L648.823 833.577C648.405 836.29 645.956 838.305 643.072 838.305Z" fill="#242424"/>
<path d="M722.435 838.305H665.641C662.122 838.305 659.41 835.344 659.875 832.027L661.378 821.456C661.781 818.712 664.23 816.666 667.145 816.666H723.179C726.543 816.666 729.193 819.379 728.976 822.572L728.248 833.128C728.031 836.042 725.504 838.305 722.435 838.305Z" fill="#242424"/>
<path d="M802 838.305H745.144C741.811 838.305 739.161 835.639 739.331 832.461L739.951 821.89C740.122 818.96 742.679 816.666 745.764 816.666H801.845C805.023 816.666 807.611 819.1 807.658 822.122L807.813 832.694C807.859 835.779 805.24 838.305 802 838.305Z" fill="#242424"/>
<path d="M881.611 838.305H824.786C821.624 838.305 819.035 835.903 818.958 832.911L818.679 822.339C818.601 819.224 821.221 816.666 824.507 816.666H880.557C883.564 816.666 886.075 818.836 886.354 821.688L887.393 832.26C887.718 835.5 885.037 838.305 881.611 838.305Z" fill="#242424"/>
<path d="M960.076 838.305H903.343C900.352 838.305 897.856 836.166 897.546 833.345L896.399 822.774C896.027 819.503 898.724 816.666 902.181 816.666H958.153C960.975 816.666 963.408 818.604 963.889 821.254L965.811 831.826C966.415 835.205 963.687 838.305 960.076 838.305Z" fill="#242424"/>
<path d="M1039.59 838.305H983.016C980.211 838.305 977.808 836.399 977.296 833.779L975.25 823.208C974.584 819.797 977.343 816.666 980.97 816.666H1036.77C1039.44 816.666 1041.76 818.387 1042.41 820.836L1045.24 831.407C1046.17 834.91 1043.39 838.305 1039.59 838.305Z" fill="#242424"/>
<path d="M1120.34 838.305H1064.01C1061.37 838.305 1059.06 836.616 1058.38 834.197L1055.44 823.626C1054.44 820.107 1057.23 816.666 1061.05 816.666H1116.62C1119.13 816.666 1121.34 818.185 1122.13 820.448L1125.85 831.004C1127.13 834.6 1124.32 838.305 1120.34 838.305Z" fill="#242424"/>
<path d="M1203.17 828.555C1205.51 833.918 1202.43 838.305 1196.32 838.305H1149.6C1143.51 838.305 1136.89 833.825 1134.91 828.338L1134.29 826.633C1132.3 821.146 1135.67 816.666 1141.76 816.666H1186.91C1193.02 816.666 1199.92 821.053 1202.24 826.401L1203.17 828.555Z" fill="#242424"/>
<path d="M1278.8 838.305H1223.12C1220.78 838.305 1218.69 836.988 1217.77 834.941L1213.03 824.37C1211.4 820.712 1214.22 816.666 1218.39 816.666H1273.3C1275.51 816.666 1277.54 817.86 1278.52 819.751L1284.02 830.322C1285.93 833.996 1283.11 838.305 1278.8 838.305Z" fill="#242424"/>
<path d="M414.515 865.199H356.605C352.42 865.199 349.598 861.106 351.273 857.464L356.667 845.668C357.581 843.637 359.689 842.335 361.999 842.335H419.041C423.087 842.335 425.908 846.164 424.513 849.76L419.987 861.571C419.134 863.742 416.949 865.199 414.515 865.199Z" fill="#242424"/>
<path d="M496.56 865.199H438.34C434.325 865.199 431.519 861.416 432.853 857.82L437.255 846.024C438.076 843.808 440.277 842.335 442.742 842.335H500.094C503.969 842.335 506.76 845.854 505.69 849.388L502.156 861.184C501.443 863.556 499.164 865.199 496.56 865.199Z" fill="#242424"/>
<path d="M577.427 865.199H518.974C515.13 865.199 512.34 861.726 513.363 858.192L516.773 846.396C517.471 843.994 519.765 842.335 522.384 842.335H580C583.674 842.335 586.433 845.559 585.689 848.985L583.131 860.781C582.573 863.354 580.202 865.199 577.427 865.199Z" fill="#242424"/>
<path d="M659.394 865.199H600.755C597.082 865.199 594.338 862.021 595.036 858.611L597.454 846.815C597.981 844.211 600.383 842.335 603.158 842.335H660.96C664.463 842.335 667.175 845.249 666.741 848.567L665.16 860.362C664.804 863.122 662.324 865.199 659.394 865.199Z" fill="#242424"/>
<path d="M741.005 865.199H682.258C678.77 865.199 676.073 862.316 676.461 859.029L677.902 847.233C678.243 844.443 680.723 842.335 683.684 842.335H741.579C744.896 842.335 747.547 844.97 747.392 848.133L746.818 859.928C746.679 862.874 744.121 865.199 741.005 865.199Z" fill="#242424"/>
<path d="M822.818 865.199H764.024C760.738 865.199 758.102 862.595 758.211 859.463L758.645 847.668C758.754 844.691 761.327 842.335 764.458 842.335H822.399C825.546 842.335 828.119 844.707 828.227 847.683L828.646 859.479C828.754 862.61 826.119 865.199 822.818 865.199Z" fill="#242424"/>
<path d="M904.692 865.199H845.929C842.813 865.199 840.256 862.874 840.116 859.913L839.558 848.117C839.419 844.97 842.054 842.335 845.371 842.335H903.281C906.242 842.335 908.722 844.443 909.063 847.233L910.474 859.045C910.861 862.316 908.164 865.199 904.692 865.199Z" fill="#242424"/>
<path d="M985.388 865.199H926.734C923.804 865.199 921.324 863.122 920.967 860.347L919.417 848.551C918.999 845.249 921.696 842.335 925.199 842.335H983.001C985.791 842.335 988.178 844.211 988.705 846.815L991.108 858.611C991.79 862.036 989.046 865.199 985.388 865.199Z" fill="#242424"/>
<path d="M1067.17 865.199H1008.7C1005.93 865.199 1003.55 863.354 1003 860.765L1000.45 848.97C999.726 845.544 1002.49 842.335 1006.16 842.335H1063.77C1066.39 842.335 1068.7 844.009 1069.39 846.412L1072.78 858.208C1073.79 861.726 1071 865.199 1067.17 865.199Z" fill="#242424"/>
<path d="M1150.21 865.199H1091.99C1089.4 865.199 1087.1 863.556 1086.39 861.184L1082.86 849.388C1081.79 845.854 1084.58 842.335 1088.45 842.335H1145.8C1148.27 842.335 1150.47 843.808 1151.29 846.024L1155.69 857.82C1157.04 861.416 1154.22 865.199 1150.21 865.199Z" fill="#242424"/>
<path d="M1230.81 865.199H1172.9C1170.45 865.199 1168.26 863.742 1167.43 861.556L1162.9 849.76C1161.52 846.148 1164.33 842.335 1168.37 842.335H1225.43C1227.74 842.335 1229.85 843.637 1230.76 845.668L1236.14 857.464C1237.82 861.122 1234.99 865.199 1230.81 865.199Z" fill="#242424"/>
<path d="M361.441 893.239H301.686C297.408 893.239 294.587 889.008 296.431 885.334L302.973 872.22C303.934 870.298 305.98 869.058 308.227 869.058H367.021C371.16 869.058 373.981 873.042 372.415 876.669L366.82 889.783C365.936 891.875 363.797 893.239 361.441 893.239Z" fill="#242424"/>
<path d="M445.858 893.239H385.762C381.654 893.239 378.848 889.318 380.352 885.675L385.793 872.561C386.661 870.453 388.815 869.058 391.202 869.058H450.353C454.306 869.058 457.111 872.732 455.887 876.313L451.391 889.426C450.616 891.705 448.384 893.239 445.858 893.239Z" fill="#242424"/>
<path d="M529.081 893.239H468.706C464.769 893.239 461.963 889.612 463.156 886.047L467.497 872.933C468.272 870.624 470.519 869.058 473.046 869.058H532.475C536.257 869.058 539.032 872.422 538.133 875.925L534.738 889.039C534.087 891.503 531.762 893.239 529.081 893.239Z" fill="#242424"/>
<path d="M613.419 893.239H552.827C549.076 893.239 546.302 889.907 547.154 886.434L550.409 873.321C551.029 870.825 553.37 869.058 556.067 869.058H615.713C619.31 869.058 622.053 872.127 621.464 875.507L619.17 888.62C618.69 891.286 616.271 893.239 613.419 893.239Z" fill="#242424"/>
<path d="M697.417 893.239H636.671C633.09 893.239 630.362 890.217 630.92 886.853L633.059 873.74C633.508 871.042 635.942 869.058 638.81 869.058H698.611C702.021 869.058 704.703 871.833 704.408 875.073L703.215 888.186C702.951 891.038 700.44 893.239 697.417 893.239Z" fill="#242424"/>
<path d="M781.601 893.239H720.792C717.398 893.239 714.732 890.511 714.98 887.287L716.018 874.174C716.251 871.29 718.777 869.058 721.831 869.058H781.694C784.919 869.058 787.538 871.554 787.523 874.639L787.43 887.737C787.414 890.79 784.81 893.239 781.601 893.239Z" fill="#242424"/>
<path d="M865.863 893.239H805.038C801.83 893.239 799.226 890.775 799.21 887.737L799.148 874.623C799.133 871.554 801.737 869.058 804.976 869.058H864.84C867.893 869.058 870.42 871.306 870.637 874.189L871.66 887.303C871.908 890.511 869.242 893.239 865.863 893.239Z" fill="#242424"/>
<path d="M948.9 893.239H888.153C885.13 893.239 882.604 891.038 882.356 888.171L881.193 875.057C880.914 871.833 883.596 869.058 887.006 869.058H946.792C949.675 869.058 952.108 871.058 952.542 873.755L954.65 886.869C955.193 890.217 952.465 893.239 948.9 893.239Z" fill="#242424"/>
<path d="M1033.05 893.239H972.46C969.608 893.239 967.175 891.271 966.71 888.605L964.447 875.491C963.873 872.127 966.601 869.058 970.197 869.058H1029.84C1032.56 869.058 1034.9 870.841 1035.52 873.337L1038.73 886.45C1039.58 889.922 1036.8 893.239 1033.05 893.239Z" fill="#242424"/>
<path d="M1118.52 893.239H1058.13C1055.45 893.239 1053.13 891.503 1052.49 889.023L1049.1 875.91C1048.2 872.422 1050.97 869.058 1054.75 869.058H1114.18C1116.72 869.058 1118.97 870.624 1119.73 872.933L1124.07 886.047C1125.25 889.612 1122.44 893.239 1118.52 893.239Z" fill="#242424"/>
<path d="M1201.47 893.239H1141.36C1138.83 893.239 1136.6 891.705 1135.82 889.411L1131.34 876.297C1130.13 872.732 1132.94 869.058 1136.88 869.058H1196.04C1198.43 869.058 1200.58 870.453 1201.45 872.561L1206.88 885.675C1208.38 889.318 1205.56 893.239 1201.47 893.239Z" fill="#242424"/>
<path d="M1391.52 893.239H1226.61C1224.24 893.239 1222.11 891.875 1221.21 889.783L1215.63 876.669C1214.07 873.042 1216.89 869.058 1221.01 869.058H1383.6C1385.68 869.058 1387.61 870.112 1388.65 871.833L1396.57 884.946C1398.81 888.636 1396 893.239 1391.52 893.239Z" fill="#242424"/>
<path d="M1313.16 865.199H1255.64C1253.35 865.199 1251.27 863.912 1250.32 861.912L1244.81 850.117C1243.09 846.458 1245.91 842.335 1250.12 842.335H1306.79C1308.98 842.335 1310.96 843.498 1311.97 845.342L1318.34 857.138C1320.34 860.812 1317.54 865.199 1313.16 865.199Z" fill="#242424"/>
<path d="M1226.38 813.178H1172.33C1169.92 813.178 1167.77 811.768 1166.9 809.629L1163.07 800.173C1161.61 796.546 1164.42 792.656 1168.51 792.656H1221.87C1224.16 792.656 1226.22 793.927 1227.17 795.895L1231.68 805.351C1233.43 809.009 1230.61 813.178 1226.38 813.178Z" fill="#242424"/>
<path d="M1347.08 816.837H1296.3C1291.74 816.837 1288.67 818.046 1289.45 819.534L1298.05 835.685C1298.86 837.236 1303.35 838.491 1308 838.491H1316.14C1318.31 838.491 1320.29 839.638 1321.29 841.452L1332.74 862.161C1333.64 863.773 1338.29 865.106 1343.08 865.106H1375.82C1380.61 865.106 1383.72 863.773 1382.75 862.161L1356.98 819.534C1356.09 818.046 1351.64 816.837 1347.08 816.837Z" fill="#242424"/>
<path d="M1343.1 813.178H1251.01C1248.74 813.178 1246.68 811.923 1245.74 809.97L1241.1 800.53C1239.3 796.856 1242.12 792.656 1246.37 792.656H1337.38C1339.47 792.656 1341.39 793.71 1342.43 795.43L1348.13 804.886C1350.37 808.575 1347.56 813.178 1343.1 813.178Z" fill="#242424"/>
<path d="M391.234 789.028H337.075C332.766 789.028 329.96 784.735 331.851 781.046L332.052 780.658C333.045 778.767 335.06 777.573 337.276 777.573H391.404C395.558 777.573 398.38 781.604 396.768 785.262L396.597 785.649C395.683 787.695 393.574 789.028 391.234 789.028Z" fill="#242424"/>
<path d="M469.992 789.028H415.477C411.338 789.028 408.517 785.045 410.082 781.402L410.253 781.015C411.136 778.938 413.276 777.573 415.632 777.573H470.132C474.115 777.573 476.921 781.294 475.635 784.874L475.511 785.262C474.704 787.509 472.488 789.028 469.992 789.028Z" fill="#242424"/>
<path d="M547.557 789.028H492.732C488.779 789.028 485.974 785.355 487.198 781.774L487.338 781.387C488.113 779.108 490.345 777.573 492.856 777.573H547.65C551.448 777.573 554.238 780.984 553.293 784.471L553.184 784.859C552.533 787.323 550.208 789.028 547.557 789.028Z" fill="#242424"/>
<path d="M626.238 789.028H571.195C567.413 789.028 564.639 785.68 565.538 782.193L565.631 781.805C566.266 779.325 568.607 777.573 571.288 777.573H626.316C629.927 777.573 632.655 780.658 632.051 784.053L631.989 784.44C631.493 787.091 629.075 789.028 626.238 789.028Z" fill="#242424"/>
<path d="M703.866 789.028H648.652C645.072 789.028 642.344 785.975 642.902 782.611L642.979 782.224C643.429 779.542 645.862 777.573 648.714 777.573H703.897C707.322 777.573 710.004 780.364 709.694 783.603L709.663 783.991C709.399 786.843 706.873 789.028 703.866 789.028Z" fill="#242424"/>
<path d="M782.485 789.028H727.194C723.799 789.028 721.133 786.285 721.381 783.061L721.412 782.689C721.66 779.806 724.187 777.573 727.225 777.573H782.485C785.709 777.573 788.329 780.069 788.298 783.138V783.526C788.282 786.579 785.678 789.028 782.485 789.028Z" fill="#242424"/>
<path d="M859.895 789.028H804.604C801.396 789.028 798.791 786.564 798.776 783.526V783.138C798.76 780.069 801.365 777.573 804.589 777.573H859.864C862.902 777.573 865.429 779.806 865.661 782.689L865.692 783.076C865.956 786.285 863.274 789.028 859.895 789.028Z" fill="#242424"/>
<path d="M938.529 789.028H883.316C880.293 789.028 877.782 786.843 877.519 783.975L877.472 783.603C877.178 780.364 879.859 777.573 883.285 777.573H938.467C941.319 777.573 943.753 779.558 944.202 782.239L944.264 782.627C944.838 785.99 942.11 789.028 938.529 789.028Z" fill="#242424"/>
<path d="M1015.99 789.028H960.928C958.091 789.028 955.673 787.091 955.193 784.425L955.131 784.037C954.526 780.658 957.254 777.573 960.866 777.573H1015.89C1018.57 777.573 1020.92 779.325 1021.55 781.805L1021.64 782.193C1022.54 785.68 1019.77 789.028 1015.99 789.028Z" fill="#242424"/>
<path d="M1094.45 789.028H1039.62C1036.96 789.028 1034.65 787.308 1033.98 784.859L1033.89 784.471C1032.94 780.968 1035.72 777.573 1039.52 777.573H1094.33C1096.84 777.573 1099.07 779.124 1099.86 781.402L1099.98 781.774C1101.21 785.355 1098.4 789.028 1094.45 789.028Z" fill="#242424"/>
<path d="M1171.72 789.028H1117.19C1114.69 789.028 1112.46 787.509 1111.67 785.262L1111.53 784.874C1110.26 781.294 1113.07 777.573 1117.05 777.573H1171.55C1173.92 777.573 1176.05 778.938 1176.94 781.015L1177.1 781.402C1178.67 785.045 1175.84 789.028 1171.72 789.028Z" fill="#242424"/>
<path d="M1250 789.028H1195.86C1193.51 789.028 1191.39 787.695 1190.49 785.634L1190.32 785.246C1188.71 781.604 1191.53 777.573 1195.68 777.573H1249.81C1252.03 777.573 1254.06 778.783 1255.04 780.674L1255.24 781.061C1257.13 784.735 1254.31 789.028 1250 789.028Z" fill="#242424"/>
<path d="M1327.21 789.028H1273.48C1271.28 789.028 1269.27 787.85 1268.27 785.975L1268.07 785.587C1266.14 781.914 1268.94 777.573 1273.28 777.573H1326.98C1329.07 777.573 1330.99 778.628 1332.03 780.348L1332.26 780.736C1334.48 784.425 1331.69 789.028 1327.21 789.028Z" fill="#242424"/>
<path d="M249.589 743.705C233.36 743.705 220.153 730.514 220.153 714.284V61.3825C220.153 27.5446 248.008 0 282.249 0H1304.31C1338.55 0 1366.41 27.5446 1366.41 61.3825V714.284C1366.41 730.514 1353.2 743.705 1336.99 743.705H249.589Z" fill="#F1F2F2"/>
<path d="M1304.31 3.89062H282.248C250.1 3.89062 224.043 29.6372 224.043 61.3825V714.285C224.043 728.39 235.483 739.814 249.588 739.814H1336.99C1351.09 739.814 1362.52 728.39 1362.52 714.285V61.3825C1362.52 29.6372 1336.46 3.89062 1304.31 3.89062Z" fill="#D1D3D4"/>
<path d="M270.453 59.1969H1316.11V726.158H270.453V59.1969Z" fill="white"/>
<rect x="270" y="59" width="1046" height="667" fill="#47465A"/>
<path d="M717.376 190.888C718.304 190.888 719.04 191.16 719.584 191.704C720.128 192.248 720.4 192.952 720.4 193.816V199H674.512V196.072C674.512 195.464 674.64 194.84 674.896 194.2C675.152 193.56 675.552 192.968 676.096 192.424L698.128 170.296C699.952 168.44 701.616 166.664 703.12 164.968C704.624 163.24 705.904 161.512 706.96 159.784C708.016 158.056 708.832 156.312 709.408 154.552C709.984 152.76 710.272 150.856 710.272 148.84C710.272 146.824 709.952 145.064 709.312 143.56C708.672 142.024 707.792 140.76 706.672 139.768C705.584 138.776 704.288 138.04 702.784 137.56C701.28 137.048 699.664 136.792 697.936 136.792C696.176 136.792 694.56 137.048 693.088 137.56C691.616 138.072 690.304 138.792 689.152 139.72C688.032 140.616 687.088 141.688 686.32 142.936C685.552 144.184 685.008 145.56 684.688 147.064C684.304 148.184 683.776 148.936 683.104 149.32C682.464 149.672 681.552 149.768 680.368 149.608L675.904 148.84C676.352 145.704 677.216 142.936 678.496 140.536C679.808 138.104 681.44 136.072 683.392 134.44C685.376 132.808 687.632 131.576 690.16 130.744C692.688 129.88 695.424 129.448 698.368 129.448C701.28 129.448 704 129.88 706.528 130.744C709.056 131.608 711.248 132.872 713.104 134.536C714.96 136.168 716.416 138.168 717.472 140.536C718.528 142.904 719.056 145.592 719.056 148.6C719.056 151.16 718.672 153.544 717.904 155.752C717.136 157.928 716.096 160.008 714.784 161.992C713.472 163.976 711.952 165.912 710.224 167.8C708.528 169.688 706.72 171.592 704.8 173.512L686.656 192.04C687.936 191.688 689.232 191.416 690.544 191.224C691.856 191 693.12 190.888 694.336 190.888H717.376ZM797.626 190.888C798.554 190.888 799.29 191.16 799.834 191.704C800.378 192.248 800.65 192.952 800.65 193.816V199H754.762V196.072C754.762 195.464 754.89 194.84 755.146 194.2C755.402 193.56 755.802 192.968 756.346 192.424L778.378 170.296C780.202 168.44 781.866 166.664 783.37 164.968C784.874 163.24 786.154 161.512 787.21 159.784C788.266 158.056 789.082 156.312 789.658 154.552C790.234 152.76 790.522 150.856 790.522 148.84C790.522 146.824 790.202 145.064 789.562 143.56C788.922 142.024 788.042 140.76 786.922 139.768C785.834 138.776 784.538 138.04 783.034 137.56C781.53 137.048 779.914 136.792 778.186 136.792C776.426 136.792 774.81 137.048 773.338 137.56C771.866 138.072 770.554 138.792 769.402 139.72C768.282 140.616 767.338 141.688 766.57 142.936C765.802 144.184 765.258 145.56 764.938 147.064C764.554 148.184 764.026 148.936 763.354 149.32C762.714 149.672 761.802 149.768 760.618 149.608L756.154 148.84C756.602 145.704 757.466 142.936 758.746 140.536C760.058 138.104 761.69 136.072 763.642 134.44C765.626 132.808 767.882 131.576 770.41 130.744C772.938 129.88 775.674 129.448 778.618 129.448C781.53 129.448 784.25 129.88 786.778 130.744C789.306 131.608 791.498 132.872 793.354 134.536C795.21 136.168 796.666 138.168 797.722 140.536C798.778 142.904 799.306 145.592 799.306 148.6C799.306 151.16 798.922 153.544 798.154 155.752C797.386 157.928 796.346 160.008 795.034 161.992C793.722 163.976 792.202 165.912 790.474 167.8C788.778 169.688 786.97 171.592 785.05 173.512L766.906 192.04C768.186 191.688 769.482 191.416 770.794 191.224C772.106 191 773.37 190.888 774.586 190.888H797.626ZM858.738 164.632C858.738 170.648 858.082 175.864 856.77 180.28C855.49 184.664 853.73 188.296 851.49 191.176C849.25 194.056 846.594 196.2 843.522 197.608C840.482 199.016 837.218 199.72 833.73 199.72C830.21 199.72 826.93 199.016 823.89 197.608C820.882 196.2 818.258 194.056 816.018 191.176C813.778 188.296 812.018 184.664 810.738 180.28C809.458 175.864 808.818 170.648 808.818 164.632C808.818 158.616 809.458 153.4 810.738 148.984C812.018 144.568 813.778 140.92 816.018 138.04C818.258 135.128 820.882 132.968 823.89 131.56C826.93 130.152 830.21 129.448 833.73 129.448C837.218 129.448 840.482 130.152 843.522 131.56C846.594 132.968 849.25 135.128 851.49 138.04C853.73 140.92 855.49 144.568 856.77 148.984C858.082 153.4 858.738 158.616 858.738 164.632ZM849.858 164.632C849.858 159.384 849.41 154.984 848.514 151.432C847.65 147.848 846.466 144.968 844.962 142.792C843.49 140.616 841.778 139.064 839.826 138.136C837.874 137.176 835.842 136.696 833.73 136.696C831.618 136.696 829.586 137.176 827.634 138.136C825.682 139.064 823.97 140.616 822.498 142.792C821.026 144.968 819.842 147.848 818.946 151.432C818.082 154.984 817.65 159.384 817.65 164.632C817.65 169.88 818.082 174.28 818.946 177.832C819.842 181.384 821.026 184.248 822.498 186.424C823.97 188.6 825.682 190.168 827.634 191.128C829.586 192.056 831.618 192.52 833.73 192.52C835.842 192.52 837.874 192.056 839.826 191.128C841.778 190.168 843.49 188.6 844.962 186.424C846.466 184.248 847.65 181.384 848.514 177.832C849.41 174.28 849.858 169.88 849.858 164.632ZM910.489 192.472V199H873.625V192.472H888.361V145.576C888.361 144.168 888.409 142.744 888.505 141.304L876.265 151.816C875.849 152.168 875.433 152.392 875.017 152.488C874.601 152.552 874.217 152.552 873.865 152.488C873.513 152.424 873.177 152.296 872.857 152.104C872.569 151.912 872.345 151.704 872.185 151.48L869.497 147.784L889.993 130.072H896.953V192.472H910.489Z" fill="#9493B6"/>
<path d="M756.192 228.206V254H752.7V242.264H738.786V254H735.294V228.206H738.786V239.708H752.7V228.206H756.192ZM787.338 241.112C787.338 243.044 787.032 244.82 786.42 246.44C785.808 248.048 784.944 249.434 783.828 250.598C782.712 251.762 781.368 252.668 779.796 253.316C778.236 253.952 776.508 254.27 774.612 254.27C772.716 254.27 770.988 253.952 769.428 253.316C767.868 252.668 766.53 251.762 765.414 250.598C764.298 249.434 763.434 248.048 762.822 246.44C762.21 244.82 761.904 243.044 761.904 241.112C761.904 239.18 762.21 237.41 762.822 235.802C763.434 234.182 764.298 232.79 765.414 231.626C766.53 230.45 767.868 229.538 769.428 228.89C770.988 228.242 772.716 227.918 774.612 227.918C776.508 227.918 778.236 228.242 779.796 228.89C781.368 229.538 782.712 230.45 783.828 231.626C784.944 232.79 785.808 234.182 786.42 235.802C787.032 237.41 787.338 239.18 787.338 241.112ZM783.756 241.112C783.756 239.528 783.54 238.106 783.108 236.846C782.676 235.586 782.064 234.524 781.272 233.66C780.48 232.784 779.52 232.112 778.392 231.644C777.264 231.176 776.004 230.942 774.612 230.942C773.232 230.942 771.978 231.176 770.85 231.644C769.722 232.112 768.756 232.784 767.952 233.66C767.16 234.524 766.548 235.586 766.116 236.846C765.684 238.106 765.468 239.528 765.468 241.112C765.468 242.696 765.684 244.118 766.116 245.378C766.548 246.626 767.16 247.688 767.952 248.564C768.756 249.428 769.722 250.094 770.85 250.562C771.978 251.018 773.232 251.246 774.612 251.246C776.004 251.246 777.264 251.018 778.392 250.562C779.52 250.094 780.48 249.428 781.272 248.564C782.064 247.688 782.676 246.626 783.108 245.378C783.54 244.118 783.756 242.696 783.756 241.112ZM780.426 226.172H778.086C777.942 226.172 777.768 226.148 777.564 226.1C777.372 226.04 777.174 225.89 776.97 225.65L774.864 223.112L774.648 222.788L774.432 223.112L772.326 225.65C772.122 225.89 771.918 226.04 771.714 226.1C771.522 226.148 771.354 226.172 771.21 226.172H768.96L773.262 221.294H776.142L780.426 226.172ZM800.668 241.58C801.664 241.58 802.54 241.448 803.296 241.184C804.064 240.92 804.706 240.554 805.222 240.086C805.75 239.606 806.146 239.036 806.41 238.376C806.674 237.716 806.806 236.99 806.806 236.198C806.806 234.554 806.296 233.27 805.276 232.346C804.268 231.422 802.732 230.96 800.668 230.96H796.528V241.58H800.668ZM800.668 228.206C802.3 228.206 803.716 228.398 804.916 228.782C806.128 229.154 807.13 229.688 807.922 230.384C808.714 231.08 809.302 231.92 809.686 232.904C810.082 233.888 810.28 234.986 810.28 236.198C810.28 237.398 810.07 238.496 809.65 239.492C809.23 240.488 808.612 241.346 807.796 242.066C806.992 242.786 805.99 243.35 804.79 243.758C803.602 244.154 802.228 244.352 800.668 244.352H796.528V254H793.054V228.206H800.668ZM818.887 254H815.395V228.206H818.887V254ZM843.647 231.14H835.295V254H831.821V231.14H823.451V228.206H843.647V231.14ZM859.362 244.424L855.312 233.93C855.192 233.618 855.066 233.258 854.934 232.85C854.802 232.43 854.676 231.986 854.556 231.518C854.304 232.49 854.046 233.3 853.782 233.948L849.732 244.424H859.362ZM866.634 254H863.934C863.622 254 863.37 253.922 863.178 253.766C862.986 253.61 862.842 253.412 862.746 253.172L860.334 246.944H848.76L846.348 253.172C846.276 253.388 846.138 253.58 845.934 253.748C845.73 253.916 845.478 254 845.178 254H842.478L852.792 228.206H856.32L866.634 254ZM880.103 251.228C881.171 251.228 882.125 251.048 882.965 250.688C883.805 250.328 884.513 249.824 885.089 249.176C885.677 248.528 886.121 247.754 886.421 246.854C886.733 245.954 886.889 244.964 886.889 243.884V228.206H890.363V243.884C890.363 245.372 890.123 246.752 889.643 248.024C889.175 249.296 888.497 250.4 887.609 251.336C886.733 252.26 885.659 252.986 884.387 253.514C883.115 254.042 881.687 254.306 880.103 254.306C878.519 254.306 877.091 254.042 875.819 253.514C874.547 252.986 873.467 252.26 872.579 251.336C871.691 250.4 871.007 249.296 870.527 248.024C870.059 246.752 869.825 245.372 869.825 243.884V228.206H873.299V243.866C873.299 244.946 873.449 245.936 873.749 246.836C874.061 247.736 874.505 248.51 875.081 249.158C875.669 249.806 876.383 250.316 877.223 250.688C878.075 251.048 879.035 251.228 880.103 251.228ZM917.016 254H913.56C913.296 254 913.086 253.934 912.93 253.802C912.786 253.658 912.666 253.502 912.57 253.334L905.658 242.498C905.562 242.786 905.454 243.032 905.334 243.236L898.602 253.334C898.482 253.502 898.35 253.658 898.206 253.802C898.074 253.934 897.888 254 897.648 254H894.408L903.282 240.752L894.768 228.206H898.242C898.494 228.206 898.68 228.248 898.8 228.332C898.92 228.416 899.028 228.536 899.124 228.692L905.856 239.024C905.94 238.772 906.066 238.496 906.234 238.196L912.588 228.764C912.684 228.596 912.798 228.464 912.93 228.368C913.062 228.26 913.218 228.206 913.398 228.206H916.728L908.178 240.59L917.016 254Z" fill="#9493B6"/>
<g clip-path="url(#clip0)">
<path d="M1015.19 214H1005.15C1003.49 214 1002.14 212.657 1002.14 211V201C1002.14 199.343 1003.49 198 1005.15 198H1015.19C1016.86 198 1018.21 199.343 1018.21 201V211C1018.21 212.657 1016.86 214 1015.19 214ZM1037.29 214H1047.33C1049 214 1050.35 212.657 1050.35 211V201C1050.35 199.343 1049 198 1047.33 198H1037.29C1035.63 198 1034.28 199.343 1034.28 201V211C1034.28 212.657 1035.63 214 1037.29 214ZM1005.15 190H1015.19C1016.86 190 1018.21 188.657 1018.21 187V177C1018.21 175.343 1016.86 174 1015.19 174H1005.15C1003.49 174 1002.14 175.343 1002.14 177V187C1002.14 188.657 1003.49 190 1005.15 190ZM1037.29 190H1047.33C1049 190 1050.35 188.657 1050.35 187V177C1050.35 175.343 1049 174 1047.33 174H1037.29C1035.63 174 1034.28 175.343 1034.28 177V187C1034.28 188.657 1035.63 190 1037.29 190ZM1082.48 254H970V249C970 247.343 971.349 246 973.013 246H978.035V147.25C978.035 144.351 980.733 142 984.061 142H1006.16V132C1006.16 128.686 1008.85 126 1012.18 126H1040.3C1043.63 126 1046.33 128.686 1046.33 132V142H1068.42C1071.75 142 1074.45 144.351 1074.45 147.25V246H1079.47C1081.14 246 1082.48 247.343 1082.48 249V254ZM986.069 246H1018.21V225C1018.21 223.343 1019.56 222 1021.22 222H1031.26C1032.93 222 1034.28 223.343 1034.28 225V246H1066.42V150H1046.33V160C1046.33 163.314 1043.63 166 1040.3 166H1012.18C1008.85 166 1006.16 163.314 1006.16 160V150H986.069V246ZM1036.79 142H1030.26V135.5C1030.26 135.102 1030.1 134.721 1029.82 134.439C1029.54 134.158 1029.15 134 1028.75 134H1023.73C1023.33 134 1022.95 134.158 1022.67 134.439C1022.38 134.721 1022.23 135.102 1022.23 135.5V142H1015.7C1015.3 142 1014.91 142.158 1014.63 142.439C1014.35 142.721 1014.19 143.102 1014.19 143.5V148.5C1014.19 148.898 1014.35 149.279 1014.63 149.561C1014.91 149.842 1015.3 150 1015.7 150H1022.23V156.5C1022.23 156.898 1022.38 157.279 1022.67 157.561C1022.95 157.842 1023.33 158 1023.73 158H1028.75C1029.15 158 1029.54 157.842 1029.82 157.561C1030.1 157.279 1030.26 156.898 1030.26 156.5V150H1036.79C1037.19 150 1037.57 149.842 1037.85 149.561C1038.14 149.279 1038.29 148.898 1038.29 148.5V143.5C1038.29 143.102 1038.14 142.721 1037.85 142.439C1037.57 142.158 1037.19 142 1036.79 142Z" fill="#9493B6"/>
</g>
<path d="M705.04 384.184V355.816C705.04 354.984 705.072 354.072 705.136 353.08C705.2 352.088 705.296 351.08 705.424 350.056L680.368 384.184H705.04ZM722.944 384.184V389.08C722.944 389.592 722.784 390.024 722.464 390.376C722.176 390.728 721.712 390.904 721.072 390.904H712.528V409H705.04V390.904H674.512C673.872 390.904 673.312 390.728 672.832 390.376C672.384 389.992 672.096 389.528 671.968 388.984L671.104 384.616L704.56 340.216H712.528V384.184H722.944ZM785.29 384.184V355.816C785.29 354.984 785.322 354.072 785.386 353.08C785.45 352.088 785.546 351.08 785.674 350.056L760.618 384.184H785.29ZM803.194 384.184V389.08C803.194 389.592 803.034 390.024 802.714 390.376C802.426 390.728 801.962 390.904 801.322 390.904H792.778V409H785.29V390.904H754.762C754.122 390.904 753.562 390.728 753.082 390.376C752.634 389.992 752.346 389.528 752.218 388.984L751.354 384.616L784.81 340.216H792.778V384.184H803.194ZM858.738 374.632C858.738 380.648 858.082 385.864 856.77 390.28C855.49 394.664 853.73 398.296 851.49 401.176C849.25 404.056 846.594 406.2 843.522 407.608C840.482 409.016 837.218 409.72 833.73 409.72C830.21 409.72 826.93 409.016 823.89 407.608C820.882 406.2 818.258 404.056 816.018 401.176C813.778 398.296 812.018 394.664 810.738 390.28C809.458 385.864 808.818 380.648 808.818 374.632C808.818 368.616 809.458 363.4 810.738 358.984C812.018 354.568 813.778 350.92 816.018 348.04C818.258 345.128 820.882 342.968 823.89 341.56C826.93 340.152 830.21 339.448 833.73 339.448C837.218 339.448 840.482 340.152 843.522 341.56C846.594 342.968 849.25 345.128 851.49 348.04C853.73 350.92 855.49 354.568 856.77 358.984C858.082 363.4 858.738 368.616 858.738 374.632ZM849.858 374.632C849.858 369.384 849.41 364.984 848.514 361.432C847.65 357.848 846.466 354.968 844.962 352.792C843.49 350.616 841.778 349.064 839.826 348.136C837.874 347.176 835.842 346.696 833.73 346.696C831.618 346.696 829.586 347.176 827.634 348.136C825.682 349.064 823.97 350.616 822.498 352.792C821.026 354.968 819.842 357.848 818.946 361.432C818.082 364.984 817.65 369.384 817.65 374.632C817.65 379.88 818.082 384.28 818.946 387.832C819.842 391.384 821.026 394.248 822.498 396.424C823.97 398.6 825.682 400.168 827.634 401.128C829.586 402.056 831.618 402.52 833.73 402.52C835.842 402.52 837.874 402.056 839.826 401.128C841.778 400.168 843.49 398.6 844.962 396.424C846.466 394.248 847.65 391.384 848.514 387.832C849.41 384.28 849.858 379.88 849.858 374.632ZM867.865 358.84C868.313 355.704 869.177 352.936 870.457 350.536C871.737 348.104 873.353 346.072 875.305 344.44C877.289 342.808 879.545 341.576 882.073 340.744C884.633 339.88 887.385 339.448 890.329 339.448C893.241 339.448 895.929 339.864 898.393 340.696C900.857 341.528 902.969 342.712 904.729 344.248C906.521 345.784 907.913 347.64 908.905 349.816C909.897 351.992 910.393 354.408 910.393 357.064C910.393 359.24 910.105 361.192 909.529 362.92C908.985 364.616 908.185 366.104 907.129 367.384C906.105 368.664 904.857 369.752 903.385 370.648C901.913 371.544 900.265 372.28 898.441 372.856C902.921 374.008 906.281 375.992 908.521 378.808C910.793 381.592 911.929 385.08 911.929 389.272C911.929 392.44 911.321 395.288 910.105 397.816C908.921 400.344 907.289 402.504 905.209 404.296C903.129 406.056 900.697 407.416 897.913 408.376C895.161 409.304 892.201 409.768 889.033 409.768C885.385 409.768 882.265 409.32 879.673 408.424C877.081 407.496 874.889 406.232 873.097 404.632C871.305 403.032 869.833 401.144 868.681 398.968C867.529 396.76 866.553 394.376 865.753 391.816L869.449 390.28C870.409 389.864 871.337 389.752 872.233 389.944C873.161 390.136 873.833 390.664 874.249 391.528C874.665 392.424 875.177 393.496 875.785 394.744C876.425 395.992 877.289 397.192 878.377 398.344C879.465 399.496 880.841 400.472 882.505 401.272C884.201 402.072 886.345 402.472 888.937 402.472C891.337 402.472 893.433 402.088 895.225 401.32C897.049 400.52 898.553 399.496 899.737 398.248C900.953 397 901.865 395.608 902.473 394.072C903.081 392.536 903.385 391.016 903.385 389.512C903.385 387.656 903.145 385.96 902.665 384.424C902.185 382.888 901.289 381.56 899.977 380.44C898.665 379.32 896.857 378.44 894.553 377.8C892.281 377.16 889.353 376.84 885.769 376.84V370.648C888.713 370.616 891.209 370.296 893.257 369.688C895.337 369.08 897.017 368.248 898.297 367.192C899.609 366.136 900.553 364.872 901.129 363.4C901.737 361.928 902.041 360.296 902.041 358.504C902.041 356.52 901.721 354.792 901.081 353.32C900.473 351.848 899.625 350.632 898.537 349.672C897.449 348.712 896.153 347.992 894.649 347.512C893.177 347.032 891.577 346.792 889.849 346.792C888.121 346.792 886.505 347.048 885.001 347.56C883.529 348.072 882.217 348.792 881.065 349.72C879.945 350.616 879.001 351.688 878.233 352.936C877.465 354.184 876.921 355.56 876.601 357.064C876.185 358.184 875.657 358.936 875.017 359.32C874.409 359.672 873.513 359.768 872.329 359.608L867.865 358.84Z" fill="#F2B5C4"/>
<path d="M1056 448H1036C1034.89 448 1034 448.895 1034 450V454C1034 455.105 1034.89 456 1036 456H1056C1057.11 456 1058 455.105 1058 454V450C1058 448.895 1057.11 448 1056 448ZM994 404V428C994 430.21 996.048 432 998.573 432H1053.43C1055.96 432 1058 430.21 1058 428V404C1058 401.79 1055.96 400 1053.43 400H998.573C996.048 400 994 401.79 994 404ZM1002 408H1050V424H1002V408ZM996 368H1024C1025.11 368 1026 367.105 1026 366V362C1026 360.895 1025.11 360 1024 360H996C994.895 360 994 360.895 994 362V366C994 367.105 994.895 368 996 368ZM996 384H1024C1025.11 384 1026 383.105 1026 382V378C1026 376.895 1025.11 376 1024 376H996C994.895 376 994 376.895 994 378V382C994 383.105 994.895 384 996 384ZM1070.47 368.495L1049.5 347.525C1047.25 345.275 1044.21 344 1041.03 344H989.998C983.375 344.025 978 349.4 978 356.023V460.003C978 466.625 983.375 472 989.998 472H1062C1068.63 472 1074 466.625 1074 460.003V376.993C1074 373.82 1072.72 370.745 1070.47 368.495ZM1042.01 352.148C1042.71 352.323 1043.33 352.673 1043.86 353.198L1064.83 374.167C1065.35 374.692 1065.7 375.318 1065.88 376.018H1042.01V352.148V352.148ZM1066 460.003C1066 462.203 1064.2 464.003 1062 464.003H989.998C987.798 464.003 985.997 462.203 985.997 460.003V356.023C985.997 353.822 987.798 352 989.998 352H1034.01V378.018C1034.01 381.343 1036.68 384 1040.01 384H1066V460.003Z" fill="#F2B5C4"/>
<path d="M513.908 451.58C514.904 451.58 515.78 451.448 516.536 451.184C517.304 450.92 517.946 450.554 518.462 450.086C518.99 449.606 519.386 449.036 519.65 448.376C519.914 447.716 520.046 446.99 520.046 446.198C520.046 444.554 519.536 443.27 518.516 442.346C517.508 441.422 515.972 440.96 513.908 440.96H509.768V451.58H513.908ZM513.908 438.206C515.54 438.206 516.956 438.398 518.156 438.782C519.368 439.154 520.37 439.688 521.162 440.384C521.954 441.08 522.542 441.92 522.926 442.904C523.322 443.888 523.52 444.986 523.52 446.198C523.52 447.398 523.31 448.496 522.89 449.492C522.47 450.488 521.852 451.346 521.036 452.066C520.232 452.786 519.23 453.35 518.03 453.758C516.842 454.154 515.468 454.352 513.908 454.352H509.768V464H506.294V438.206H513.908ZM540.54 454.424L536.49 443.93C536.37 443.618 536.244 443.258 536.112 442.85C535.98 442.43 535.854 441.986 535.734 441.518C535.482 442.49 535.224 443.3 534.96 443.948L530.91 454.424H540.54ZM547.812 464H545.112C544.8 464 544.548 463.922 544.356 463.766C544.164 463.61 544.02 463.412 543.924 463.172L541.512 456.944H529.938L527.526 463.172C527.454 463.388 527.316 463.58 527.112 463.748C526.908 463.916 526.656 464 526.356 464H523.656L533.97 438.206H537.498L547.812 464ZM572.209 451.598V461.498C570.913 462.434 569.527 463.136 568.051 463.604C566.587 464.06 564.979 464.288 563.227 464.288C561.151 464.288 559.279 463.97 557.611 463.334C555.943 462.686 554.515 461.786 553.327 460.634C552.151 459.47 551.245 458.078 550.609 456.458C549.973 454.838 549.655 453.056 549.655 451.112C549.655 449.144 549.961 447.35 550.573 445.73C551.197 444.11 552.079 442.724 553.219 441.572C554.359 440.408 555.745 439.508 557.377 438.872C559.009 438.236 560.833 437.918 562.849 437.918C563.869 437.918 564.817 437.996 565.693 438.152C566.569 438.296 567.379 438.512 568.123 438.8C568.867 439.076 569.557 439.418 570.193 439.826C570.829 440.222 571.423 440.672 571.975 441.176L570.985 442.76C570.829 443 570.625 443.156 570.373 443.228C570.133 443.288 569.863 443.228 569.563 443.048C569.275 442.88 568.945 442.676 568.573 442.436C568.201 442.196 567.745 441.968 567.205 441.752C566.677 441.524 566.047 441.332 565.315 441.176C564.595 441.02 563.737 440.942 562.741 440.942C561.289 440.942 559.975 441.182 558.799 441.662C557.623 442.13 556.621 442.808 555.793 443.696C554.965 444.572 554.329 445.64 553.885 446.9C553.441 448.148 553.219 449.552 553.219 451.112C553.219 452.732 553.447 454.184 553.903 455.468C554.371 456.74 555.031 457.826 555.883 458.726C556.747 459.614 557.791 460.292 559.015 460.76C560.239 461.228 561.613 461.462 563.137 461.462C564.337 461.462 565.399 461.33 566.323 461.066C567.259 460.79 568.171 460.412 569.059 459.932V454.262H565.045C564.817 454.262 564.631 454.196 564.487 454.064C564.355 453.932 564.289 453.77 564.289 453.578V451.598H572.209ZM594.186 461.156L594.168 464H578.274V438.206H594.168V441.05H581.766V449.618H591.81V452.354H581.766V461.156H594.186ZM612.966 442.238C612.858 442.418 612.738 442.556 612.606 442.652C612.486 442.736 612.336 442.778 612.156 442.778C611.952 442.778 611.712 442.676 611.436 442.472C611.16 442.268 610.812 442.046 610.392 441.806C609.984 441.554 609.486 441.326 608.898 441.122C608.322 440.918 607.62 440.816 606.792 440.816C606.012 440.816 605.322 440.924 604.722 441.14C604.134 441.344 603.636 441.626 603.228 441.986C602.832 442.346 602.532 442.772 602.328 443.264C602.124 443.744 602.022 444.266 602.022 444.83C602.022 445.55 602.196 446.15 602.544 446.63C602.904 447.098 603.372 447.5 603.948 447.836C604.536 448.172 605.196 448.466 605.928 448.718C606.672 448.958 607.428 449.21 608.196 449.474C608.976 449.738 609.732 450.038 610.464 450.374C611.208 450.698 611.868 451.112 612.444 451.616C613.032 452.12 613.5 452.738 613.848 453.47C614.208 454.202 614.388 455.102 614.388 456.17C614.388 457.298 614.196 458.36 613.812 459.356C613.428 460.34 612.864 461.198 612.12 461.93C611.388 462.662 610.482 463.238 609.402 463.658C608.334 464.078 607.116 464.288 605.748 464.288C604.068 464.288 602.544 463.988 601.176 463.388C599.808 462.776 598.638 461.954 597.666 460.922L598.674 459.266C598.77 459.134 598.884 459.026 599.016 458.942C599.16 458.846 599.316 458.798 599.484 458.798C599.64 458.798 599.814 458.864 600.006 458.996C600.21 459.116 600.438 459.272 600.69 459.464C600.942 459.656 601.23 459.866 601.554 460.094C601.878 460.322 602.244 460.532 602.652 460.724C603.072 460.916 603.546 461.078 604.074 461.21C604.602 461.33 605.196 461.39 605.856 461.39C606.684 461.39 607.422 461.276 608.07 461.048C608.718 460.82 609.264 460.502 609.708 460.094C610.164 459.674 610.512 459.176 610.752 458.6C610.992 458.024 611.112 457.382 611.112 456.674C611.112 455.894 610.932 455.258 610.572 454.766C610.224 454.262 609.762 453.842 609.186 453.506C608.61 453.17 607.95 452.888 607.206 452.66C606.462 452.42 605.706 452.18 604.938 451.94C604.17 451.688 603.414 451.4 602.67 451.076C601.926 450.752 601.266 450.332 600.69 449.816C600.114 449.3 599.646 448.658 599.286 447.89C598.938 447.11 598.764 446.15 598.764 445.01C598.764 444.098 598.938 443.216 599.286 442.364C599.646 441.512 600.162 440.756 600.834 440.096C601.518 439.436 602.352 438.908 603.336 438.512C604.332 438.116 605.472 437.918 606.756 437.918C608.196 437.918 609.504 438.146 610.68 438.602C611.868 439.058 612.912 439.718 613.812 440.582L612.966 442.238ZM662.903 438.206L654.857 464H651.725L645.191 444.326C645.131 444.134 645.071 443.93 645.011 443.714C644.963 443.498 644.909 443.27 644.849 443.03C644.789 443.27 644.729 443.498 644.669 443.714C644.609 443.93 644.549 444.134 644.489 444.326L637.919 464H634.787L626.741 438.206H629.639C629.951 438.206 630.209 438.284 630.413 438.44C630.629 438.596 630.767 438.794 630.827 439.034L636.155 456.962C636.239 457.286 636.317 457.634 636.389 458.006C636.473 458.378 636.551 458.774 636.623 459.194C636.707 458.774 636.791 458.378 636.875 458.006C636.971 457.622 637.073 457.274 637.181 456.962L643.247 439.034C643.319 438.83 643.457 438.644 643.661 438.476C643.877 438.296 644.135 438.206 644.435 438.206H645.443C645.755 438.206 646.007 438.284 646.199 438.44C646.391 438.596 646.535 438.794 646.631 439.034L652.679 456.962C652.787 457.274 652.883 457.61 652.967 457.97C653.063 458.33 653.153 458.708 653.237 459.104C653.297 458.708 653.363 458.33 653.435 457.97C653.507 457.61 653.585 457.274 653.669 456.962L659.015 439.034C659.075 438.818 659.207 438.626 659.411 438.458C659.627 438.29 659.885 438.206 660.185 438.206H662.903ZM683.375 461.156L683.357 464H667.463V438.206H683.357V441.05H670.955V449.618H680.999V452.354H670.955V461.156H683.375ZM698.014 461.228C699.01 461.228 699.868 461.114 700.588 460.886C701.308 460.658 701.896 460.34 702.352 459.932C702.82 459.512 703.162 459.02 703.378 458.456C703.594 457.88 703.702 457.25 703.702 456.566C703.702 455.234 703.228 454.184 702.28 453.416C701.332 452.636 699.91 452.246 698.014 452.246H692.434V461.228H698.014ZM692.434 440.96V449.762H697.042C698.026 449.762 698.878 449.654 699.598 449.438C700.33 449.222 700.93 448.922 701.398 448.538C701.878 448.154 702.232 447.692 702.46 447.152C702.688 446.6 702.802 446 702.802 445.352C702.802 443.828 702.346 442.718 701.434 442.022C700.522 441.314 699.106 440.96 697.186 440.96H692.434ZM697.186 438.206C698.77 438.206 700.132 438.362 701.272 438.674C702.424 438.986 703.366 439.43 704.098 440.006C704.842 440.582 705.388 441.29 705.736 442.13C706.084 442.958 706.258 443.894 706.258 444.938C706.258 445.574 706.156 446.186 705.952 446.774C705.76 447.35 705.466 447.89 705.07 448.394C704.674 448.898 704.17 449.354 703.558 449.762C702.958 450.158 702.25 450.482 701.434 450.734C703.33 451.094 704.752 451.772 705.7 452.768C706.66 453.752 707.14 455.048 707.14 456.656C707.14 457.748 706.936 458.744 706.528 459.644C706.132 460.544 705.544 461.318 704.764 461.966C703.996 462.614 703.048 463.118 701.92 463.478C700.792 463.826 699.508 464 698.068 464H688.96V438.206H697.186ZM735.387 454.424L731.337 443.93C731.217 443.618 731.091 443.258 730.959 442.85C730.827 442.43 730.701 441.986 730.581 441.518C730.329 442.49 730.071 443.3 729.807 443.948L725.757 454.424H735.387ZM742.659 464H739.959C739.647 464 739.395 463.922 739.203 463.766C739.011 463.61 738.867 463.412 738.771 463.172L736.359 456.944H724.785L722.373 463.172C722.301 463.388 722.163 463.58 721.959 463.748C721.755 463.916 721.503 464 721.203 464H718.503L728.817 438.206H732.345L742.659 464ZM767.671 438.206V464H765.925C765.649 464 765.415 463.952 765.223 463.856C765.043 463.76 764.863 463.598 764.683 463.37L749.761 443.93C749.785 444.23 749.803 444.524 749.815 444.812C749.827 445.1 749.833 445.37 749.833 445.622V464H746.773V438.206H748.573C748.729 438.206 748.861 438.218 748.969 438.242C749.077 438.254 749.173 438.284 749.257 438.332C749.341 438.368 749.425 438.428 749.509 438.512C749.593 438.584 749.683 438.68 749.779 438.8L764.701 458.222C764.677 457.91 764.653 457.61 764.629 457.322C764.617 457.022 764.611 456.74 764.611 456.476V438.206H767.671ZM788.683 454.424L784.633 443.93C784.513 443.618 784.387 443.258 784.255 442.85C784.123 442.43 783.997 441.986 783.877 441.518C783.625 442.49 783.367 443.3 783.103 443.948L779.053 454.424H788.683ZM795.955 464H793.255C792.943 464 792.691 463.922 792.499 463.766C792.307 463.61 792.163 463.412 792.067 463.172L789.655 456.944H778.081L775.669 463.172C775.597 463.388 775.459 463.58 775.255 463.748C775.051 463.916 774.799 464 774.499 464H771.799L782.113 438.206H785.641L795.955 464ZM814.702 461.066V464H800.068V438.206H803.542V461.066H814.702ZM825.554 453.722V464H822.062V453.722L812.612 438.206H815.672C815.984 438.206 816.23 438.284 816.41 438.44C816.59 438.584 816.746 438.776 816.878 439.016L822.782 449.042C822.998 449.462 823.196 449.858 823.376 450.23C823.556 450.59 823.712 450.956 823.844 451.328C823.976 450.956 824.126 450.59 824.294 450.23C824.462 449.858 824.648 449.462 824.852 449.042L830.738 439.016C830.846 438.812 830.996 438.626 831.188 438.458C831.38 438.29 831.626 438.206 831.926 438.206H835.004L825.554 453.722ZM851.44 442.238C851.332 442.418 851.212 442.556 851.08 442.652C850.96 442.736 850.81 442.778 850.63 442.778C850.426 442.778 850.186 442.676 849.91 442.472C849.634 442.268 849.286 442.046 848.866 441.806C848.458 441.554 847.96 441.326 847.372 441.122C846.796 440.918 846.094 440.816 845.266 440.816C844.486 440.816 843.796 440.924 843.196 441.14C842.608 441.344 842.11 441.626 841.702 441.986C841.306 442.346 841.006 442.772 840.802 443.264C840.598 443.744 840.496 444.266 840.496 444.83C840.496 445.55 840.67 446.15 841.018 446.63C841.378 447.098 841.846 447.5 842.422 447.836C843.01 448.172 843.67 448.466 844.402 448.718C845.146 448.958 845.902 449.21 846.67 449.474C847.45 449.738 848.206 450.038 848.938 450.374C849.682 450.698 850.342 451.112 850.918 451.616C851.506 452.12 851.974 452.738 852.322 453.47C852.682 454.202 852.862 455.102 852.862 456.17C852.862 457.298 852.67 458.36 852.286 459.356C851.902 460.34 851.338 461.198 850.594 461.93C849.862 462.662 848.956 463.238 847.876 463.658C846.808 464.078 845.59 464.288 844.222 464.288C842.542 464.288 841.018 463.988 839.65 463.388C838.282 462.776 837.112 461.954 836.14 460.922L837.148 459.266C837.244 459.134 837.358 459.026 837.49 458.942C837.634 458.846 837.79 458.798 837.958 458.798C838.114 458.798 838.288 458.864 838.48 458.996C838.684 459.116 838.912 459.272 839.164 459.464C839.416 459.656 839.704 459.866 840.028 460.094C840.352 460.322 840.718 460.532 841.126 460.724C841.546 460.916 842.02 461.078 842.548 461.21C843.076 461.33 843.67 461.39 844.33 461.39C845.158 461.39 845.896 461.276 846.544 461.048C847.192 460.82 847.738 460.502 848.182 460.094C848.638 459.674 848.986 459.176 849.226 458.6C849.466 458.024 849.586 457.382 849.586 456.674C849.586 455.894 849.406 455.258 849.046 454.766C848.698 454.262 848.236 453.842 847.66 453.506C847.084 453.17 846.424 452.888 845.68 452.66C844.936 452.42 844.18 452.18 843.412 451.94C842.644 451.688 841.888 451.4 841.144 451.076C840.4 450.752 839.74 450.332 839.164 449.816C838.588 449.3 838.12 448.658 837.76 447.89C837.412 447.11 837.238 446.15 837.238 445.01C837.238 444.098 837.412 443.216 837.76 442.364C838.12 441.512 838.636 440.756 839.308 440.096C839.992 439.436 840.826 438.908 841.81 438.512C842.806 438.116 843.946 437.918 845.23 437.918C846.67 437.918 847.978 438.146 849.154 438.602C850.342 439.058 851.386 439.718 852.286 440.582L851.44 442.238ZM874.425 461.156L874.407 464H858.513V438.206H874.407V441.05H862.005V449.618H872.049V452.354H862.005V461.156H874.425ZM873.489 430.664L867.621 435.812C867.441 435.98 867.267 436.082 867.099 436.118C866.931 436.154 866.727 436.172 866.487 436.172H864.183L868.341 431.24C868.545 430.976 868.749 430.814 868.953 430.754C869.169 430.694 869.475 430.664 869.871 430.664H873.489ZM895.923 461.156L895.905 464H880.011V438.206H895.905V441.05H883.503V449.618H893.547V452.354H883.503V461.156H895.923ZM914.702 442.238C914.594 442.418 914.474 442.556 914.342 442.652C914.222 442.736 914.072 442.778 913.892 442.778C913.688 442.778 913.448 442.676 913.172 442.472C912.896 442.268 912.548 442.046 912.128 441.806C911.72 441.554 911.222 441.326 910.634 441.122C910.058 440.918 909.356 440.816 908.528 440.816C907.748 440.816 907.058 440.924 906.458 441.14C905.87 441.344 905.372 441.626 904.964 441.986C904.568 442.346 904.268 442.772 904.064 443.264C903.86 443.744 903.758 444.266 903.758 444.83C903.758 445.55 903.932 446.15 904.28 446.63C904.64 447.098 905.108 447.5 905.684 447.836C906.272 448.172 906.932 448.466 907.664 448.718C908.408 448.958 909.164 449.21 909.932 449.474C910.712 449.738 911.468 450.038 912.2 450.374C912.944 450.698 913.604 451.112 914.18 451.616C914.768 452.12 915.236 452.738 915.584 453.47C915.944 454.202 916.124 455.102 916.124 456.17C916.124 457.298 915.932 458.36 915.548 459.356C915.164 460.34 914.6 461.198 913.856 461.93C913.124 462.662 912.218 463.238 911.138 463.658C910.07 464.078 908.852 464.288 907.484 464.288C905.804 464.288 904.28 463.988 902.912 463.388C901.544 462.776 900.374 461.954 899.402 460.922L900.41 459.266C900.506 459.134 900.62 459.026 900.752 458.942C900.896 458.846 901.052 458.798 901.22 458.798C901.376 458.798 901.55 458.864 901.742 458.996C901.946 459.116 902.174 459.272 902.426 459.464C902.678 459.656 902.966 459.866 903.29 460.094C903.614 460.322 903.98 460.532 904.388 460.724C904.808 460.916 905.282 461.078 905.81 461.21C906.338 461.33 906.932 461.39 907.592 461.39C908.42 461.39 909.158 461.276 909.806 461.048C910.454 460.82 911 460.502 911.444 460.094C911.9 459.674 912.248 459.176 912.488 458.6C912.728 458.024 912.848 457.382 912.848 456.674C912.848 455.894 912.668 455.258 912.308 454.766C911.96 454.262 911.498 453.842 910.922 453.506C910.346 453.17 909.686 452.888 908.942 452.66C908.198 452.42 907.442 452.18 906.674 451.94C905.906 451.688 905.15 451.4 904.406 451.076C903.662 450.752 903.002 450.332 902.426 449.816C901.85 449.3 901.382 448.658 901.022 447.89C900.674 447.11 900.5 446.15 900.5 445.01C900.5 444.098 900.674 443.216 901.022 442.364C901.382 441.512 901.898 440.756 902.57 440.096C903.254 439.436 904.088 438.908 905.072 438.512C906.068 438.116 907.208 437.918 908.492 437.918C909.932 437.918 911.24 438.146 912.416 438.602C913.604 439.058 914.648 439.718 915.548 440.582L914.702 442.238Z" fill="#F2B5C4"/>
<path d="M607.864 612.472V619H571V612.472H585.736V565.576C585.736 564.168 585.784 562.744 585.88 561.304L573.64 571.816C573.224 572.168 572.808 572.392 572.392 572.488C571.976 572.552 571.592 572.552 571.24 572.488C570.888 572.424 570.552 572.296 570.232 572.104C569.944 571.912 569.72 571.704 569.56 571.48L566.872 567.784L587.368 550.072H594.328V612.472H607.864ZM649.728 594.184V565.816C649.728 564.984 649.76 564.072 649.824 563.08C649.888 562.088 649.984 561.08 650.112 560.056L625.056 594.184H649.728ZM667.632 594.184V599.08C667.632 599.592 667.472 600.024 667.152 600.376C666.864 600.728 666.4 600.904 665.76 600.904H657.216V619H649.728V600.904H619.2C618.56 600.904 618 600.728 617.52 600.376C617.072 599.992 616.784 599.528 616.656 598.984L615.792 594.616L649.248 550.216H657.216V594.184H667.632ZM687.751 576.184C691.335 575.416 694.631 575.032 697.639 575.032C701.223 575.032 704.391 575.56 707.143 576.616C709.895 577.672 712.183 579.128 714.007 580.984C715.863 582.84 717.255 585.032 718.183 587.56C719.143 590.088 719.623 592.84 719.623 595.816C719.623 599.464 718.983 602.76 717.703 605.704C716.455 608.648 714.711 611.176 712.471 613.288C710.263 615.368 707.655 616.968 704.647 618.088C701.639 619.208 698.391 619.768 694.903 619.768C692.887 619.768 690.951 619.56 689.095 619.144C687.239 618.76 685.495 618.232 683.863 617.56C682.263 616.888 680.775 616.12 679.399 615.256C678.023 614.392 676.807 613.48 675.751 612.52L678.391 608.872C678.967 608.04 679.719 607.624 680.647 607.624C681.287 607.624 682.007 607.88 682.807 608.392C683.607 608.872 684.583 609.416 685.735 610.024C686.887 610.632 688.231 611.192 689.767 611.704C691.335 612.184 693.191 612.424 695.335 612.424C697.735 612.424 699.895 612.04 701.815 611.272C703.735 610.504 705.383 609.416 706.759 608.008C708.135 606.568 709.191 604.856 709.927 602.872C710.663 600.888 711.031 598.664 711.031 596.2C711.031 594.056 710.711 592.12 710.071 590.392C709.463 588.664 708.519 587.192 707.239 585.976C705.991 584.76 704.423 583.816 702.535 583.144C700.647 582.472 698.439 582.136 695.911 582.136C694.183 582.136 692.375 582.28 690.487 582.568C688.631 582.856 686.727 583.32 684.775 583.96L679.399 582.376L684.919 550.216H717.511V553.96C717.511 555.176 717.127 556.184 716.359 556.984C715.623 557.752 714.343 558.136 712.519 558.136H690.919L687.751 576.184ZM798.001 610.888C798.929 610.888 799.665 611.16 800.209 611.704C800.753 612.248 801.025 612.952 801.025 613.816V619H755.137V616.072C755.137 615.464 755.265 614.84 755.521 614.2C755.777 613.56 756.177 612.968 756.721 612.424L778.753 590.296C780.577 588.44 782.241 586.664 783.745 584.968C785.249 583.24 786.529 581.512 787.585 579.784C788.641 578.056 789.457 576.312 790.033 574.552C790.609 572.76 790.897 570.856 790.897 568.84C790.897 566.824 790.577 565.064 789.937 563.56C789.297 562.024 788.417 560.76 787.297 559.768C786.209 558.776 784.913 558.04 783.409 557.56C781.905 557.048 780.289 556.792 778.561 556.792C776.801 556.792 775.185 557.048 773.713 557.56C772.241 558.072 770.929 558.792 769.777 559.72C768.657 560.616 767.713 561.688 766.945 562.936C766.177 564.184 765.633 565.56 765.313 567.064C764.929 568.184 764.401 568.936 763.729 569.32C763.089 569.672 762.177 569.768 760.993 569.608L756.529 568.84C756.977 565.704 757.841 562.936 759.121 560.536C760.433 558.104 762.065 556.072 764.017 554.44C766.001 552.808 768.257 551.576 770.785 550.744C773.313 549.88 776.049 549.448 778.993 549.448C781.905 549.448 784.625 549.88 787.153 550.744C789.681 551.608 791.873 552.872 793.729 554.536C795.585 556.168 797.041 558.168 798.097 560.536C799.153 562.904 799.681 565.592 799.681 568.6C799.681 571.16 799.297 573.544 798.529 575.752C797.761 577.928 796.721 580.008 795.409 581.992C794.097 583.976 792.577 585.912 790.849 587.8C789.153 589.688 787.345 591.592 785.425 593.512L767.281 612.04C768.561 611.688 769.857 611.416 771.169 611.224C772.481 611 773.745 610.888 774.961 610.888H798.001ZM834.057 612.664C836.361 612.664 838.441 612.296 840.297 611.56C842.185 610.824 843.785 609.8 845.097 608.488C846.441 607.176 847.465 605.624 848.169 603.832C848.905 602.04 849.273 600.088 849.273 597.976C849.273 595.736 848.921 593.72 848.217 591.928C847.513 590.104 846.505 588.568 845.193 587.32C843.913 586.04 842.377 585.064 840.585 584.392C838.793 583.72 836.825 583.384 834.681 583.384C832.377 583.384 830.297 583.784 828.441 584.584C826.585 585.352 825.001 586.408 823.689 587.752C822.409 589.064 821.417 590.6 820.713 592.36C820.041 594.088 819.705 595.896 819.705 597.784C819.705 599.992 820.025 602.008 820.665 603.832C821.305 605.656 822.233 607.224 823.449 608.536C824.697 609.848 826.201 610.872 827.961 611.608C829.753 612.312 831.785 612.664 834.057 612.664ZM829.065 575.992C828.457 576.76 827.865 577.512 827.289 578.248C826.745 578.952 826.217 579.656 825.705 580.36C827.337 579.24 829.129 578.376 831.081 577.768C833.033 577.16 835.161 576.856 837.465 576.856C840.249 576.856 842.873 577.32 845.337 578.248C847.801 579.144 849.945 580.472 851.769 582.232C853.625 583.96 855.097 586.104 856.185 588.664C857.273 591.192 857.817 594.088 857.817 597.352C857.817 600.52 857.241 603.464 856.089 606.184C854.937 608.904 853.321 611.272 851.241 613.288C849.193 615.304 846.713 616.888 843.801 618.04C840.921 619.192 837.737 619.768 834.249 619.768C830.793 619.768 827.657 619.224 824.841 618.136C822.025 617.016 819.625 615.448 817.641 613.432C815.689 611.384 814.169 608.92 813.081 606.04C812.025 603.128 811.497 599.88 811.497 596.296C811.497 593.288 812.153 590.088 813.465 586.696C814.809 583.272 816.937 579.624 819.849 575.752L837.321 552.28C837.769 551.704 838.377 551.224 839.145 550.84C839.945 550.424 840.857 550.216 841.881 550.216H849.465L829.065 575.992ZM889.744 612.664C892.048 612.664 894.128 612.296 895.984 611.56C897.872 610.824 899.472 609.8 900.784 608.488C902.128 607.176 903.152 605.624 903.856 603.832C904.592 602.04 904.96 600.088 904.96 597.976C904.96 595.736 904.608 593.72 903.904 591.928C903.2 590.104 902.192 588.568 900.88 587.32C899.6 586.04 898.064 585.064 896.272 584.392C894.48 583.72 892.512 583.384 890.368 583.384C888.064 583.384 885.984 583.784 884.128 584.584C882.272 585.352 880.688 586.408 879.376 587.752C878.096 589.064 877.104 590.6 876.4 592.36C875.728 594.088 875.392 595.896 875.392 597.784C875.392 599.992 875.712 602.008 876.352 603.832C876.992 605.656 877.92 607.224 879.136 608.536C880.384 609.848 881.888 610.872 883.648 611.608C885.44 612.312 887.472 612.664 889.744 612.664ZM884.752 575.992C884.144 576.76 883.552 577.512 882.976 578.248C882.432 578.952 881.904 579.656 881.392 580.36C883.024 579.24 884.816 578.376 886.768 577.768C888.72 577.16 890.848 576.856 893.152 576.856C895.936 576.856 898.56 577.32 901.024 578.248C903.488 579.144 905.632 580.472 907.456 582.232C909.312 583.96 910.784 586.104 911.872 588.664C912.96 591.192 913.504 594.088 913.504 597.352C913.504 600.52 912.928 603.464 911.776 606.184C910.624 608.904 909.008 611.272 906.928 613.288C904.88 615.304 902.4 616.888 899.488 618.04C896.608 619.192 893.424 619.768 889.936 619.768C886.48 619.768 883.344 619.224 880.528 618.136C877.712 617.016 875.312 615.448 873.328 613.432C871.376 611.384 869.856 608.92 868.768 606.04C867.712 603.128 867.184 599.88 867.184 596.296C867.184 593.288 867.84 590.088 869.152 586.696C870.496 583.272 872.624 579.624 875.536 575.752L893.008 552.28C893.456 551.704 894.064 551.224 894.832 550.84C895.632 550.424 896.544 550.216 897.568 550.216H905.152L884.752 575.992Z" fill="white"/>
<path d="M550.65 661.112C550.65 663.044 550.344 664.802 549.732 666.386C549.12 667.97 548.256 669.326 547.14 670.454C546.024 671.582 544.68 672.458 543.108 673.082C541.548 673.694 539.82 674 537.924 674H528.294V648.206H537.924C539.82 648.206 541.548 648.518 543.108 649.142C544.68 649.754 546.024 650.63 547.14 651.77C548.256 652.898 549.12 654.254 549.732 655.838C550.344 657.422 550.65 659.18 550.65 661.112ZM547.068 661.112C547.068 659.528 546.852 658.112 546.42 656.864C545.988 655.616 545.376 654.56 544.584 653.696C543.792 652.832 542.832 652.172 541.704 651.716C540.576 651.26 539.316 651.032 537.924 651.032H531.786V671.174H537.924C539.316 671.174 540.576 670.946 541.704 670.49C542.832 670.034 543.792 669.38 544.584 668.528C545.376 667.664 545.988 666.608 546.42 665.36C546.852 664.112 547.068 662.696 547.068 661.112ZM580.233 661.112C580.233 663.044 579.927 664.82 579.315 666.44C578.703 668.048 577.839 669.434 576.723 670.598C575.607 671.762 574.263 672.668 572.691 673.316C571.131 673.952 569.403 674.27 567.507 674.27C565.611 674.27 563.883 673.952 562.323 673.316C560.763 672.668 559.425 671.762 558.309 670.598C557.193 669.434 556.329 668.048 555.717 666.44C555.105 664.82 554.799 663.044 554.799 661.112C554.799 659.18 555.105 657.41 555.717 655.802C556.329 654.182 557.193 652.79 558.309 651.626C559.425 650.45 560.763 649.538 562.323 648.89C563.883 648.242 565.611 647.918 567.507 647.918C569.403 647.918 571.131 648.242 572.691 648.89C574.263 649.538 575.607 650.45 576.723 651.626C577.839 652.79 578.703 654.182 579.315 655.802C579.927 657.41 580.233 659.18 580.233 661.112ZM576.651 661.112C576.651 659.528 576.435 658.106 576.003 656.846C575.571 655.586 574.959 654.524 574.167 653.66C573.375 652.784 572.415 652.112 571.287 651.644C570.159 651.176 568.899 650.942 567.507 650.942C566.127 650.942 564.873 651.176 563.745 651.644C562.617 652.112 561.651 652.784 560.847 653.66C560.055 654.524 559.443 655.586 559.011 656.846C558.579 658.106 558.363 659.528 558.363 661.112C558.363 662.696 558.579 664.118 559.011 665.378C559.443 666.626 560.055 667.688 560.847 668.564C561.651 669.428 562.617 670.094 563.745 670.562C564.873 671.018 566.127 671.246 567.507 671.246C568.899 671.246 570.159 671.018 571.287 670.562C572.415 670.094 573.375 669.428 574.167 668.564C574.959 667.688 575.571 666.626 576.003 665.378C576.435 664.118 576.651 662.696 576.651 661.112ZM606.847 648.206V674H605.101C604.825 674 604.591 673.952 604.399 673.856C604.219 673.76 604.039 673.598 603.859 673.37L588.937 653.93C588.961 654.23 588.979 654.524 588.991 654.812C589.003 655.1 589.009 655.37 589.009 655.622V674H585.949V648.206H587.749C587.905 648.206 588.037 648.218 588.145 648.242C588.253 648.254 588.349 648.284 588.433 648.332C588.517 648.368 588.601 648.428 588.685 648.512C588.769 648.584 588.859 648.68 588.955 648.8L603.877 668.222C603.853 667.91 603.829 667.61 603.805 667.322C603.793 667.022 603.787 666.74 603.787 666.476V648.206H606.847ZM635.059 648.206V674H633.313C633.037 674 632.803 673.952 632.611 673.856C632.431 673.76 632.251 673.598 632.071 673.37L617.149 653.93C617.173 654.23 617.191 654.524 617.203 654.812C617.215 655.1 617.221 655.37 617.221 655.622V674H614.161V648.206H615.961C616.117 648.206 616.249 648.218 616.357 648.242C616.465 648.254 616.561 648.284 616.645 648.332C616.729 648.368 616.813 648.428 616.897 648.512C616.981 648.584 617.071 648.68 617.167 648.8L632.089 668.222C632.065 667.91 632.041 667.61 632.017 667.322C632.005 667.022 631.999 666.74 631.999 666.476V648.206H635.059ZM658.285 671.156L658.267 674H642.373V648.206H658.267V651.05H645.865V659.618H655.909V662.354H645.865V671.156H658.285ZM657.349 640.664L651.481 645.812C651.301 645.98 651.127 646.082 650.959 646.118C650.791 646.154 650.587 646.172 650.347 646.172H648.043L652.201 641.24C652.405 640.976 652.609 640.814 652.813 640.754C653.029 640.694 653.335 640.664 653.731 640.664H657.349ZM679.783 671.156L679.765 674H663.871V648.206H679.765V651.05H667.363V659.618H677.407V662.354H667.363V671.156H679.783ZM698.562 652.238C698.454 652.418 698.334 652.556 698.202 652.652C698.082 652.736 697.932 652.778 697.752 652.778C697.548 652.778 697.308 652.676 697.032 652.472C696.756 652.268 696.408 652.046 695.988 651.806C695.58 651.554 695.082 651.326 694.494 651.122C693.918 650.918 693.216 650.816 692.388 650.816C691.608 650.816 690.918 650.924 690.318 651.14C689.73 651.344 689.232 651.626 688.824 651.986C688.428 652.346 688.128 652.772 687.924 653.264C687.72 653.744 687.618 654.266 687.618 654.83C687.618 655.55 687.792 656.15 688.14 656.63C688.5 657.098 688.968 657.5 689.544 657.836C690.132 658.172 690.792 658.466 691.524 658.718C692.268 658.958 693.024 659.21 693.792 659.474C694.572 659.738 695.328 660.038 696.06 660.374C696.804 660.698 697.464 661.112 698.04 661.616C698.628 662.12 699.096 662.738 699.444 663.47C699.804 664.202 699.984 665.102 699.984 666.17C699.984 667.298 699.792 668.36 699.408 669.356C699.024 670.34 698.46 671.198 697.716 671.93C696.984 672.662 696.078 673.238 694.998 673.658C693.93 674.078 692.712 674.288 691.344 674.288C689.664 674.288 688.14 673.988 686.772 673.388C685.404 672.776 684.234 671.954 683.262 670.922L684.27 669.266C684.366 669.134 684.48 669.026 684.612 668.942C684.756 668.846 684.912 668.798 685.08 668.798C685.236 668.798 685.41 668.864 685.602 668.996C685.806 669.116 686.034 669.272 686.286 669.464C686.538 669.656 686.826 669.866 687.15 670.094C687.474 670.322 687.84 670.532 688.248 670.724C688.668 670.916 689.142 671.078 689.67 671.21C690.198 671.33 690.792 671.39 691.452 671.39C692.28 671.39 693.018 671.276 693.666 671.048C694.314 670.82 694.86 670.502 695.304 670.094C695.76 669.674 696.108 669.176 696.348 668.6C696.588 668.024 696.708 667.382 696.708 666.674C696.708 665.894 696.528 665.258 696.168 664.766C695.82 664.262 695.358 663.842 694.782 663.506C694.206 663.17 693.546 662.888 692.802 662.66C692.058 662.42 691.302 662.18 690.534 661.94C689.766 661.688 689.01 661.4 688.266 661.076C687.522 660.752 686.862 660.332 686.286 659.816C685.71 659.3 685.242 658.658 684.882 657.89C684.534 657.11 684.36 656.15 684.36 655.01C684.36 654.098 684.534 653.216 684.882 652.364C685.242 651.512 685.758 650.756 686.43 650.096C687.114 649.436 687.948 648.908 688.932 648.512C689.928 648.116 691.068 647.918 692.352 647.918C693.792 647.918 695.1 648.146 696.276 648.602C697.464 649.058 698.508 649.718 699.408 650.582L698.562 652.238ZM717.546 661.112C717.546 662.696 717.762 664.118 718.194 665.378C718.626 666.626 719.238 667.688 720.03 668.564C720.834 669.428 721.8 670.094 722.928 670.562C724.056 671.018 725.31 671.246 726.69 671.246C728.082 671.246 729.342 671.018 730.47 670.562C731.598 670.094 732.558 669.428 733.35 668.564C734.142 667.688 734.754 666.626 735.186 665.378C735.618 664.118 735.834 662.696 735.834 661.112C735.834 659.528 735.618 658.106 735.186 656.846C734.754 655.586 734.142 654.524 733.35 653.66C732.558 652.784 731.598 652.112 730.47 651.644C729.342 651.176 728.082 650.942 726.69 650.942C725.31 650.942 724.056 651.176 722.928 651.644C721.8 652.112 720.834 652.784 720.03 653.66C719.238 654.524 718.626 655.586 718.194 656.846C717.762 658.106 717.546 659.528 717.546 661.112ZM740.604 679.328H737.724C737.292 679.328 736.908 679.268 736.572 679.148C736.236 679.028 735.93 678.818 735.654 678.518L731.136 673.586C729.768 674.042 728.286 674.27 726.69 674.27C724.794 674.27 723.066 673.952 721.506 673.316C719.946 672.668 718.608 671.762 717.492 670.598C716.376 669.434 715.512 668.048 714.9 666.44C714.288 664.82 713.982 663.044 713.982 661.112C713.982 659.18 714.288 657.41 714.9 655.802C715.512 654.182 716.376 652.79 717.492 651.626C718.608 650.45 719.946 649.538 721.506 648.89C723.066 648.242 724.794 647.918 726.69 647.918C728.586 647.918 730.314 648.242 731.874 648.89C733.446 649.538 734.79 650.45 735.906 651.626C737.022 652.79 737.886 654.182 738.498 655.802C739.11 657.41 739.416 659.18 739.416 661.112C739.416 662.324 739.29 663.476 739.038 664.568C738.798 665.66 738.444 666.68 737.976 667.628C737.508 668.564 736.938 669.416 736.266 670.184C735.594 670.952 734.838 671.618 733.998 672.182L740.604 679.328ZM755.068 671.228C756.136 671.228 757.09 671.048 757.93 670.688C758.77 670.328 759.478 669.824 760.054 669.176C760.642 668.528 761.086 667.754 761.386 666.854C761.698 665.954 761.854 664.964 761.854 663.884V648.206H765.328V663.884C765.328 665.372 765.088 666.752 764.608 668.024C764.14 669.296 763.462 670.4 762.574 671.336C761.698 672.26 760.624 672.986 759.352 673.514C758.08 674.042 756.652 674.306 755.068 674.306C753.484 674.306 752.056 674.042 750.784 673.514C749.512 672.986 748.432 672.26 747.544 671.336C746.656 670.4 745.972 669.296 745.492 668.024C745.024 666.752 744.79 665.372 744.79 663.884V648.206H748.264V663.866C748.264 664.946 748.414 665.936 748.714 666.836C749.026 667.736 749.47 668.51 750.046 669.158C750.634 669.806 751.348 670.316 752.188 670.688C753.04 671.048 754 671.228 755.068 671.228ZM785.407 664.424L781.357 653.93C781.237 653.618 781.111 653.258 780.979 652.85C780.847 652.43 780.721 651.986 780.601 651.518C780.349 652.49 780.091 653.3 779.827 653.948L775.777 664.424H785.407ZM792.679 674H789.979C789.667 674 789.415 673.922 789.223 673.766C789.031 673.61 788.887 673.412 788.791 673.172L786.379 666.944H774.805L772.393 673.172C772.321 673.388 772.183 673.58 771.979 673.748C771.775 673.916 771.523 674 771.223 674H768.523L778.837 648.206H782.365L792.679 674ZM811.426 671.066V674H796.792V648.206H800.266V671.066H811.426ZM819.496 674H816.004V648.206H819.496V674ZM830.306 651.05V660.068H840.908V662.912H830.306V674H826.814V648.206H842.708V651.05H830.306ZM851.382 674H847.89V648.206H851.382V674ZM874.611 671.156L874.593 674H858.699V648.206H874.593V651.05H862.191V659.618H872.235V662.354H862.191V671.156H874.611ZM873.675 640.664L867.807 645.812C867.627 645.98 867.453 646.082 867.285 646.118C867.117 646.154 866.913 646.172 866.673 646.172H864.369L868.527 641.24C868.731 640.976 868.935 640.814 869.139 640.754C869.355 640.694 869.661 640.664 870.057 640.664H873.675ZM896.109 671.156L896.091 674H880.197V648.206H896.091V651.05H883.689V659.618H893.733V662.354H883.689V671.156H896.109ZM914.888 652.238C914.78 652.418 914.66 652.556 914.528 652.652C914.408 652.736 914.258 652.778 914.078 652.778C913.874 652.778 913.634 652.676 913.358 652.472C913.082 652.268 912.734 652.046 912.314 651.806C911.906 651.554 911.408 651.326 910.82 651.122C910.244 650.918 909.542 650.816 908.714 650.816C907.934 650.816 907.244 650.924 906.644 651.14C906.056 651.344 905.558 651.626 905.15 651.986C904.754 652.346 904.454 652.772 904.25 653.264C904.046 653.744 903.944 654.266 903.944 654.83C903.944 655.55 904.118 656.15 904.466 656.63C904.826 657.098 905.294 657.5 905.87 657.836C906.458 658.172 907.118 658.466 907.85 658.718C908.594 658.958 909.35 659.21 910.118 659.474C910.898 659.738 911.654 660.038 912.386 660.374C913.13 660.698 913.79 661.112 914.366 661.616C914.954 662.12 915.422 662.738 915.77 663.47C916.13 664.202 916.31 665.102 916.31 666.17C916.31 667.298 916.118 668.36 915.734 669.356C915.35 670.34 914.786 671.198 914.042 671.93C913.31 672.662 912.404 673.238 911.324 673.658C910.256 674.078 909.038 674.288 907.67 674.288C905.99 674.288 904.466 673.988 903.098 673.388C901.73 672.776 900.56 671.954 899.588 670.922L900.596 669.266C900.692 669.134 900.806 669.026 900.938 668.942C901.082 668.846 901.238 668.798 901.406 668.798C901.562 668.798 901.736 668.864 901.928 668.996C902.132 669.116 902.36 669.272 902.612 669.464C902.864 669.656 903.152 669.866 903.476 670.094C903.8 670.322 904.166 670.532 904.574 670.724C904.994 670.916 905.468 671.078 905.996 671.21C906.524 671.33 907.118 671.39 907.778 671.39C908.606 671.39 909.344 671.276 909.992 671.048C910.64 670.82 911.186 670.502 911.63 670.094C912.086 669.674 912.434 669.176 912.674 668.6C912.914 668.024 913.034 667.382 913.034 666.674C913.034 665.894 912.854 665.258 912.494 664.766C912.146 664.262 911.684 663.842 911.108 663.506C910.532 663.17 909.872 662.888 909.128 662.66C908.384 662.42 907.628 662.18 906.86 661.94C906.092 661.688 905.336 661.4 904.592 661.076C903.848 660.752 903.188 660.332 902.612 659.816C902.036 659.3 901.568 658.658 901.208 657.89C900.86 657.11 900.686 656.15 900.686 655.01C900.686 654.098 900.86 653.216 901.208 652.364C901.568 651.512 902.084 650.756 902.756 650.096C903.44 649.436 904.274 648.908 905.258 648.512C906.254 648.116 907.394 647.918 908.678 647.918C910.118 647.918 911.426 648.146 912.602 648.602C913.79 649.058 914.834 649.718 915.734 650.582L914.888 652.238Z" fill="white"/>
<path d="M1026 562C1052.5 562 1074 569.188 1074 578V586C1074 594.812 1052.5 602 1026 602C999.5 602 978 594.812 978 586V578C978 569.188 999.5 562 1026 562ZM1074 599.375V610C1074 618.812 1052.5 626 1026 626C999.5 626 978 618.812 978 610V599.375C988.312 606.625 1007.19 610 1026 610C1044.81 610 1063.69 606.625 1074 599.375ZM1074 623.375V634C1074 642.812 1052.5 650 1026 650C999.5 650 978 642.812 978 634V623.375C988.312 630.625 1007.19 634 1026 634C1044.81 634 1063.69 630.625 1074 623.375ZM1074 647.375V658C1074 666.812 1052.5 674 1026 674C999.5 674 978 666.812 978 658V647.375C988.312 654.625 1007.19 658 1026 658C1044.81 658 1063.69 654.625 1074 647.375ZM1026 554C1006.46 554 970 558.7 970 578V658C970 677.334 1006.52 682 1026 682C1045.54 682 1082 677.3 1082 658V578C1082 558.666 1045.48 554 1026 554Z" fill="white"/>
<defs>
<clipPath id="clip0">
<rect width="112.485" height="128" fill="white" transform="translate(970 126)"/>
</clipPath>
</defs>
</svg>
